<svg width="45" height="44" viewBox="0 0 45 44" fill="none" xmlns="http://www.w3.org/2000/svg">
<path d="M38.3439 22.8601L38.5108 22.4732C38.7286 21.9482 38.9341 21.3817 39.0778 20.7646C39.138 20.5082 39.1874 20.2427 39.2214 19.9725C39.24 19.8374 39.2523 19.7007 39.2631 19.5626C39.2724 19.4183 39.2801 19.2678 39.2771 19.1036C39.2693 18.7735 39.24 18.3943 39.0778 17.9368C38.9928 17.7096 38.88 17.4686 38.7023 17.2337C38.5293 17.0035 38.3084 16.7839 38.0643 16.6243C37.9036 16.5137 37.6935 16.4124 37.6008 16.374C37.5437 16.3479 37.4803 16.3234 37.4154 16.2988C37.3521 16.2743 37.2857 16.2512 37.2146 16.2297C36.9365 16.1438 36.6059 16.0839 36.2567 16.09C35.9091 16.0931 35.5554 16.1668 35.2556 16.2804C34.9544 16.394 34.6979 16.5398 34.4894 16.6888C34.3859 16.7624 34.2839 16.8392 34.1974 16.9144L34.0676 17.0265L33.9703 17.1186C33.839 17.2399 33.7092 17.3627 33.5887 17.4916C33.3384 17.7434 33.1128 18.009 32.8935 18.2746C32.8564 18.3191 32.8239 18.3652 32.7884 18.4112C32.8626 18.2255 32.9383 18.0412 33.0124 17.8539C33.2488 17.2445 33.4836 16.6335 33.7015 16.0087C33.8142 15.6986 33.9177 15.3839 34.0228 15.0692L34.3241 14.1388C34.5249 13.4941 34.7288 12.7756 34.82 11.9712C34.8648 11.5705 34.8802 11.1499 34.8524 10.7216L34.8231 10.4007L34.7767 10.0799L34.7705 10.04L34.7335 9.86495C34.7165 9.7882 34.6902 9.70376 34.667 9.62394C34.6408 9.54257 34.6083 9.45967 34.5774 9.37831C34.5403 9.29541 34.5048 9.21251 34.46 9.13115C34.2993 8.82565 34.0691 8.53704 33.8127 8.31291C33.5562 8.08877 33.2843 7.92758 33.0279 7.80937C32.963 7.7802 32.9012 7.75411 32.8378 7.72954L32.7467 7.69577C32.7158 7.68502 32.688 7.67428 32.6447 7.66046C32.4887 7.6098 32.3234 7.56682 32.1473 7.54225C31.7981 7.48852 31.415 7.50541 31.0751 7.58677C30.383 7.75104 29.901 8.1118 29.5688 8.41116C29.2691 8.67981 29.0018 8.97456 28.7593 9.28006C28.5214 9.58709 28.3159 9.90333 28.1336 10.2196C27.9544 10.5343 27.8014 10.8459 27.6608 11.1499C27.3858 11.7563 27.168 12.3243 26.9517 12.8278C26.4728 13.9101 25.9939 14.9924 25.5134 16.0762C25.4439 16.2297 25.3759 16.3833 25.3079 16.5368C25.257 16.6519 25.2044 16.767 25.1519 16.8822C25.2786 16.308 25.3991 15.7477 25.501 15.215L25.8425 13.577L26.17 11.9359C26.2766 11.3863 26.3786 10.8336 26.4759 10.2779L26.6165 9.44279L26.6829 9.02369L26.7154 8.81337L26.7323 8.69209L26.7509 8.55239C26.8003 8.11794 26.8019 7.64818 26.7184 7.16307C26.6335 6.67949 26.4604 6.18364 26.1963 5.74765C26.1329 5.63712 26.0618 5.53426 25.9877 5.42987C25.8996 5.3178 25.8193 5.20574 25.7142 5.09981C25.5196 4.88489 25.2724 4.68532 24.9974 4.51952C24.7193 4.35219 24.3903 4.2263 24.0426 4.15876C23.6935 4.08967 23.3165 4.09581 22.9643 4.16797C22.7851 4.20174 22.6182 4.26008 22.4514 4.32148C22.2953 4.3921 22.1347 4.46732 21.9987 4.5579C21.8535 4.6454 21.733 4.74519 21.611 4.84651C21.5507 4.89717 21.5013 4.9509 21.4456 5.00463C21.3962 5.05529 21.3298 5.1213 21.3066 5.15201C21.0471 5.44983 20.8014 5.75993 20.5898 6.08539C20.1572 6.73476 19.8328 7.42558 19.5763 8.10566C19.3044 8.83486 19.1128 9.55639 18.9491 10.2518L18.7235 11.2527C18.6524 11.5628 18.5737 11.876 18.4902 12.1907L18.3605 12.6666L18.0855 13.6338C17.8784 14.3553 17.6622 15.0922 17.469 15.8598C17.4304 16.0133 17.3933 16.1683 17.3578 16.3234C17.3439 16.1714 17.33 16.0225 17.3161 15.8705C17.279 15.8736 17.2419 15.8767 17.2064 15.8813C17.1276 15.0277 17.0473 14.1757 16.9422 13.3007C16.8341 12.421 16.6889 11.5076 16.4262 10.5834C16.3212 10.215 16.1991 9.845 16.0554 9.47963C15.9828 9.29695 15.9056 9.1158 15.8222 8.93618C15.7032 8.67827 15.5333 8.40041 15.3154 8.15632C15.0435 7.85082 14.6928 7.58524 14.2942 7.41637C13.8987 7.24443 13.4631 7.1646 13.0336 7.18303C12.9301 7.1861 12.8127 7.19838 12.6968 7.2168C12.584 7.23676 12.4712 7.26132 12.3646 7.29356C12.1499 7.35804 11.946 7.444 11.7621 7.55147C11.3913 7.76485 11.0808 8.05039 10.8444 8.37431C10.7239 8.5355 10.6251 8.70744 10.5416 8.88245C10.5015 8.96996 10.4613 9.059 10.4304 9.14804L10.3841 9.27852L10.3578 9.36603C10.2836 9.60091 10.2188 9.83732 10.1631 10.0722C10.0488 10.545 9.96693 11.0163 9.90977 11.483C9.82171 12.1831 9.78618 12.8693 9.77073 13.534C9.763 13.8671 9.75991 14.1956 9.75837 14.518C9.75837 14.8404 9.75837 15.1766 9.76609 15.5051C9.78927 16.8238 9.87269 18.1272 9.98083 19.4167L10.0921 19.4075C10.123 19.7483 10.1539 20.0907 10.1832 20.4346L10.2327 20.9473L10.5864 24.4966L10.6652 25.3609C10.6853 25.6219 10.693 25.8721 10.6853 26.1054C10.6822 26.2037 10.673 26.2958 10.6637 26.3879C10.6482 26.371 10.6343 26.3541 10.6189 26.3388C9.49264 25.0938 8.13312 24.0284 6.61756 23.2485L6.56657 23.3468C6.03358 23.0689 5.43261 22.8417 4.81464 22.7143C4.19667 22.5853 3.55708 22.5469 2.93757 22.5945C2.84642 22.6068 2.74754 22.6191 2.64558 22.6329C2.53898 22.6498 2.45247 22.659 2.29643 22.6882C2.01217 22.7419 1.68773 22.8401 1.35867 23.0259C1.03114 23.2086 0.708257 23.4941 0.484245 23.8365C0.373011 24.0053 0.280316 24.185 0.215429 24.363C0.181441 24.4505 0.155178 24.5426 0.130459 24.624C0.11192 24.6931 0.0949261 24.7622 0.079477 24.8343C0.0161355 25.1183 -0.0147628 25.433 0.006866 25.7462C0.0284948 26.0609 0.10883 26.3695 0.223154 26.6213C0.335933 26.873 0.474975 27.0665 0.597023 27.2016C0.657275 27.266 0.719072 27.3228 0.765419 27.3597C0.800952 27.3812 0.83185 27.3965 0.859659 27.4042C1.96118 28.8043 2.28716 28.7705 3.27282 30.0216C3.77491 30.585 4.39906 31.48 4.60762 31.5154C5.04483 31.9928 5.53766 32.6606 5.96251 33.2747C6.41054 33.9225 6.84002 34.4736 7.13356 34.6793C7.2278 34.8221 7.32204 34.9633 7.41473 35.1046C7.92764 35.7278 8.13621 35.5436 8.80515 36.629C8.94574 36.3787 9.1574 36.322 9.43548 36.4586C9.57607 36.5261 9.7321 36.6428 9.90359 36.8071C9.9901 36.8884 10.0782 36.9851 10.1724 37.0926C10.2141 37.1371 10.2775 37.2216 10.3362 37.306C10.3949 37.3904 10.4551 37.4795 10.5154 37.5746C10.4582 37.4488 10.4088 37.3382 10.3702 37.243C10.3501 37.1955 10.3331 37.1509 10.3192 37.111C10.3068 37.0757 10.3037 37.0527 10.2991 37.0266C10.2852 36.9299 10.313 36.8807 10.3902 36.8854L10.7749 36.6628C10.4551 36.0901 10.1461 35.5713 10.4103 35.6342C9.64404 34.5197 9.04925 33.706 8.51008 32.877C8.23508 32.4595 8.00489 32.0696 7.68818 31.5553C7.38229 31.0656 7.04395 30.5528 6.65309 29.9909C6.25914 29.4935 5.73077 28.7858 5.57474 28.8027C4.98304 28.0213 4.57981 27.6329 4.18123 27.2445C3.78264 26.8577 3.38096 26.4754 2.79389 25.7401L2.72746 25.6633C2.72746 25.6633 2.71974 25.651 2.71356 25.6464C2.70738 25.6372 2.70274 25.6295 2.69965 25.6249C2.69502 25.6142 2.69347 25.6127 2.69038 25.6004C2.6842 25.5804 2.67648 25.4944 2.71356 25.3363L2.72283 25.2979C2.73828 25.2918 2.7599 25.2857 2.79235 25.2795L2.77072 25.1705C2.78926 25.1659 2.87114 25.1552 2.93448 25.1475C3.00091 25.1383 3.0658 25.1352 3.13223 25.1275C3.26355 25.1183 3.39332 25.1137 3.52309 25.1153C3.78109 25.1199 4.036 25.146 4.28628 25.1997C4.294 25.1629 4.30173 25.1275 4.30945 25.0922C4.53347 25.1398 4.75593 25.2058 4.97222 25.2918C5.1916 25.3762 5.39244 25.4791 5.64272 25.6127C6.11546 25.8706 6.57121 26.1607 7.00378 26.4831C7.43636 26.807 7.84885 27.157 8.23508 27.5393C8.42974 27.7281 8.61513 27.9277 8.79743 28.1288C8.88549 28.2332 8.97819 28.333 9.0647 28.4389L9.19602 28.597L9.31807 28.7367C9.35978 28.7843 9.40304 28.8304 9.45711 28.8795C9.67958 29.0913 9.98238 29.3139 10.4103 29.4321C10.52 29.4582 10.6297 29.4813 10.744 29.4935C10.8614 29.4997 10.9804 29.5074 11.0978 29.4935C11.2168 29.4797 11.3373 29.4644 11.4485 29.4291C11.5628 29.3968 11.6725 29.3569 11.7698 29.3063C12.1762 29.1067 12.4434 28.8165 12.6257 28.5417L12.6937 28.4374L12.7493 28.3345C12.7849 28.2654 12.8235 28.1948 12.8482 28.1288C12.8745 28.0628 12.9069 27.9876 12.927 27.9292L12.9795 27.7711C13.0459 27.5608 13.0969 27.3474 13.1371 27.1355C13.2159 26.7103 13.2437 26.2943 13.2421 25.8967C13.2421 25.6986 13.2329 25.5037 13.2221 25.3133L13.2004 25.0324L13.1773 24.7729C13.0537 23.4051 12.9054 22.0511 12.7756 20.7063L12.6644 20.717C12.4512 18.5279 12.2874 16.374 12.3152 14.2156C12.3229 12.966 12.3801 11.7701 12.6474 10.6663C12.6798 10.5281 12.7169 10.3915 12.757 10.258L12.8188 10.0569C12.8327 10.02 12.8405 9.99544 12.8544 9.96781C12.9038 9.86342 12.9749 9.78973 13.0382 9.75596C13.0691 9.73754 13.0969 9.72986 13.1139 9.72526C13.117 9.72526 13.1356 9.72219 13.1541 9.72526C13.1711 9.72526 13.1896 9.72526 13.2066 9.72986C13.2761 9.74368 13.3348 9.77285 13.3951 9.84039C13.4291 9.87877 13.4584 9.92329 13.494 9.99852C13.9312 10.9411 14.1753 12.0019 14.3344 13.1256L14.4441 13.1103C14.5677 13.9961 14.6542 14.9264 14.7407 15.849C14.8257 16.7747 14.906 17.7096 15.0018 18.6492C15.0373 19.0038 15.076 19.3599 15.1192 19.7176L15.1501 19.9786C15.1563 20.0446 15.164 20.1122 15.1671 20.1889C15.1764 20.3394 15.181 20.5067 15.1872 20.6955C15.1949 20.8813 15.2026 21.0824 15.2305 21.305C15.2552 21.523 15.3 21.764 15.3834 22.0127C15.4606 22.2599 15.5873 22.5178 15.7495 22.7465C15.9087 22.9829 16.1141 23.1733 16.3196 23.3422C16.6162 23.5847 17.0457 23.6354 17.4011 23.4373L17.4273 23.422C17.7363 23.25 18.0422 22.9906 18.2631 22.679C18.484 22.3673 18.6169 22.0311 18.6957 21.7348C18.7838 21.4094 18.8193 21.1008 18.8564 20.8982C18.895 20.6802 18.946 20.4576 19.0062 20.2288C19.1453 19.6961 19.3322 19.1297 19.4929 18.5095C19.533 18.3544 19.5701 18.1947 19.6057 18.0336L19.6953 17.5853C19.7493 17.3074 19.8127 17.0296 19.8791 16.7517C19.8436 16.7425 19.808 16.7348 19.771 16.7256C19.9919 15.806 20.2684 14.8819 20.5403 13.9347C20.6763 13.4618 20.8107 12.9829 20.9343 12.4962C21.0594 12.0142 21.1707 11.4999 21.2726 11.044C21.4827 10.1137 21.7237 9.22019 22.0868 8.41423C22.2675 8.01201 22.4777 7.63283 22.7233 7.28281C22.8469 7.1078 22.9782 6.94201 23.1172 6.78235C23.1559 6.73322 23.176 6.71941 23.196 6.69792C23.2161 6.67335 23.2393 6.65954 23.2594 6.64265C23.3011 6.60888 23.3413 6.58892 23.3768 6.5705C23.4479 6.53979 23.5066 6.53672 23.5745 6.54593C23.6425 6.55668 23.7229 6.58892 23.8094 6.6534C23.9747 6.7716 24.1693 7.08017 24.2512 7.36725C24.3408 7.66507 24.3532 8.00894 24.2991 8.38045C24.2327 8.82719 24.157 9.28773 24.0797 9.74061C23.9221 10.651 23.7476 11.5613 23.5653 12.4732L23.2856 13.8426L22.9952 15.2058C22.5626 17.1892 22.0899 19.1911 21.7546 21.2451C21.716 21.4769 21.6805 21.7087 21.6465 21.9405L21.5955 22.2814C21.5785 22.3965 21.56 22.527 21.5461 22.6697C21.5213 22.9507 21.5074 23.3038 21.6341 23.7014C21.6944 23.8963 21.7963 24.0975 21.9261 24.2679C22.0543 24.4444 22.2088 24.578 22.3633 24.6946C22.5549 24.8389 22.8113 24.9034 23.0647 24.8451L23.0894 24.8389C23.3397 24.7806 23.5962 24.6716 23.814 24.5227C24.0334 24.3753 24.2157 24.1957 24.3547 24.0222C24.4953 23.8472 24.6035 23.6768 24.6946 23.5218C24.7858 23.3652 24.8584 23.2316 24.9356 23.0904C25.2461 22.5285 25.5443 21.962 25.8317 21.3925C26.4095 20.2534 26.9471 19.1005 27.4677 17.9461C27.9899 16.7916 28.4935 15.6372 29.0034 14.4904L29.1949 14.0606L29.3896 13.6092L29.7511 12.7372C29.9875 12.1723 30.23 11.6473 30.5251 11.1913C30.658 10.981 30.8078 10.7922 30.9623 10.6126C31.0442 10.5266 31.123 10.4376 31.2111 10.3593C31.3022 10.2702 31.3702 10.2134 31.4366 10.1674C31.503 10.1213 31.5633 10.0906 31.6096 10.0737C31.6575 10.0569 31.69 10.0538 31.724 10.0538C31.7595 10.0538 31.7919 10.0584 31.8553 10.0814C31.9387 10.1106 32.0051 10.1444 32.0546 10.1766C32.1488 10.2457 32.1782 10.2825 32.2168 10.3854C32.2245 10.413 32.2322 10.4422 32.24 10.476L32.2647 10.6448C32.2786 10.76 32.291 10.8766 32.294 10.9948C32.3172 11.4646 32.2461 11.9543 32.1287 12.4609C32.0067 12.9691 31.8367 13.491 31.6575 14.0421L31.3903 14.8435L31.1075 15.6402C30.7198 16.6995 30.2949 17.7526 29.8577 18.8088C29.8237 18.795 29.7897 18.7812 29.7557 18.7674C28.8489 20.9534 27.8818 23.1549 27.0846 25.4561C26.995 25.717 26.8637 26.0486 26.8019 26.477C26.7725 26.6888 26.7617 26.9268 26.7926 27.1693C26.8219 27.4119 26.8899 27.6498 26.9826 27.8617L26.9857 27.8693C27.1402 28.2209 27.494 28.465 27.9049 28.4604C27.9945 28.4604 28.0795 28.4604 28.1954 28.4542C28.3082 28.4466 28.4549 28.442 28.6774 28.3775C28.7855 28.3452 28.903 28.2946 28.9972 28.2393C29.0883 28.1856 29.1625 28.1334 29.2135 28.0919C29.3201 28.0075 29.3834 27.9507 29.4421 27.8985L29.5286 27.8233L29.6337 27.7296C29.7017 27.6667 29.7743 27.6053 29.8407 27.5393C29.9736 27.4088 30.1033 27.2768 30.2254 27.1386C30.7182 26.5906 31.1122 26.0026 31.4675 25.4315C31.8136 24.8896 32.1318 24.3369 32.464 23.815C32.552 23.6784 32.6401 23.5417 32.7282 23.4036C32.8224 23.2593 32.9089 23.1149 33.0001 22.9691C33.1731 22.682 33.3477 22.3934 33.5222 22.1017C34.2066 20.955 34.8926 19.8619 35.7701 19.0514L35.8504 18.9746L35.9138 18.9193C35.9555 18.8856 35.9957 18.8533 36.0327 18.8288C36.1084 18.7781 36.1687 18.7505 36.2104 18.7382C36.2537 18.7259 36.2784 18.7228 36.3247 18.7275C36.3695 18.7321 36.4375 18.7505 36.5225 18.7873C36.5441 18.7965 36.5534 18.8011 36.5595 18.8042C36.5626 18.8103 36.5704 18.8272 36.5796 18.861C36.6105 18.9685 36.6183 19.1941 36.5889 19.4474C36.5364 19.954 36.3927 20.4514 36.2011 20.9289C36.1053 21.1684 35.9987 21.4017 35.886 21.6304C35.8257 21.7486 35.767 21.8653 35.7098 21.9789C35.6496 22.0956 35.5893 22.2107 35.5306 22.3243C34.942 23.5525 34.2762 25.1045 33.6103 26.5399C32.9444 27.9737 32.277 29.2878 31.7332 30.0523C31.415 30.5943 31.0241 31.3972 30.6302 32.1325C30.2408 32.8694 29.85 33.5387 29.5812 33.8319L29.5209 33.9486C29.4931 33.9732 29.4498 34.0207 29.4159 34.0422C29.1455 34.5703 28.8103 35.1168 28.4549 35.6311C28.3638 35.7601 28.2757 35.8906 28.1799 36.0165C27.993 36.2713 27.7999 36.52 27.5975 36.761C27.1943 37.0512 26.547 37.7727 25.7513 38.4666C25.3527 38.8105 24.9263 39.1574 24.4922 39.446C24.0581 39.7331 23.6302 39.9818 23.2439 40.146C22.2953 40.6526 21.5322 40.8491 20.8061 40.9674C20.4415 41.0211 20.0846 41.0656 19.7014 41.084C19.6057 41.0902 19.5099 41.0978 19.411 41.1055C19.3121 41.1086 19.2102 41.1101 19.1066 41.1132C19.0031 41.1178 18.8965 41.1209 18.7884 41.1255C18.6741 41.1255 18.5567 41.1255 18.4346 41.1255C16.8681 41.1316 15.334 40.9198 14.0471 40.3656C13.185 40.1522 12.394 39.7454 11.7822 39.294C11.5041 39.0453 11.2508 38.7905 11.0283 38.5571C10.8089 38.3223 10.622 38.1119 10.4628 37.9676C10.3841 37.897 10.3099 37.8402 10.2435 37.8095C10.2095 37.7926 10.177 37.785 10.1446 37.7788C10.14 37.7773 10.1369 37.7788 10.1322 37.7757C10.1276 37.7696 10.123 37.765 10.1168 37.7604C10.1075 37.7512 10.0967 37.745 10.0874 37.7404C10.0689 37.7328 10.0534 37.7343 10.0395 37.7435C9.99474 37.8126 9.92985 37.8356 9.88505 37.9247C9.84025 38.0106 9.80626 38.1365 9.79699 38.3085L9.27172 38.4896C9.39222 38.8074 9.47101 38.9947 9.50655 39.1344C9.54517 39.271 9.54053 39.357 9.53745 39.4353C9.53127 39.5888 9.48801 39.7377 9.81089 40.2044C9.7939 40.3118 9.96693 40.5989 10.2033 40.8906C10.4366 41.1869 10.7363 41.4724 10.897 41.6674C11.3558 42.0711 11.9521 42.458 12.6056 42.762C13.2591 43.069 13.9667 43.2977 14.6449 43.4605C16.006 43.7767 17.2419 43.8581 17.8908 43.9962C18.0885 44.0054 18.2832 43.9947 18.4763 43.9962C18.6694 43.9947 18.861 43.9947 19.0618 43.9793C19.2596 43.9671 19.4558 43.9563 19.652 43.9456C19.8467 43.9241 20.0413 43.9011 20.2344 43.8796C21.0053 43.7782 21.7577 43.6278 22.4777 43.4021C23.9221 42.9707 25.2353 42.3075 26.4141 41.5047C27.5882 40.6941 28.6372 39.75 29.5626 38.6892C30.0261 38.1595 30.4602 37.6007 30.865 37.0097C31.0689 36.715 31.2636 36.411 31.4521 36.0963C31.5463 35.9397 31.639 35.78 31.7286 35.6142C31.7734 35.5329 31.8182 35.4484 31.863 35.3625L31.931 35.2304L31.9665 35.1583C32.0129 35.08 32.0608 34.9971 32.1102 34.9127C32.2755 34.8789 32.6092 34.3278 32.9645 33.6677C33.3183 33.0075 33.6937 32.2415 33.9703 31.7809C35.3406 29.1758 36.575 26.523 37.7661 23.8749L37.8681 23.9194L38.1833 23.2163L38.3408 22.8616L38.3439 22.8601ZM22.8515 24.3753C22.8314 24.3738 22.8098 24.3707 22.7897 24.3661C22.8098 24.3707 22.8299 24.3738 22.8515 24.3753ZM22.9102 24.0882C22.8963 24.0913 22.8809 24.0913 22.867 24.0882C22.8809 24.0913 22.8963 24.0928 22.9102 24.0882ZM22.6028 24.6962C22.6028 24.6962 22.5966 24.6931 22.592 24.6931C22.5951 24.6931 22.5982 24.6962 22.6028 24.6962ZM22.5302 24.6624C22.5302 24.6624 22.5225 24.6578 22.5178 24.6563C22.5225 24.6578 22.5255 24.6609 22.5302 24.6624ZM22.9396 24.3722C22.9149 24.3769 22.8901 24.3784 22.8654 24.3769C22.8901 24.3769 22.9164 24.3769 22.9411 24.3707L22.9859 24.3615L22.9396 24.3707V24.3722ZM27.3565 28.0075C27.3441 27.9952 27.3302 27.9829 27.3194 27.9691C27.3318 27.9829 27.3441 27.9952 27.3565 28.0075ZM27.5172 28.1319C27.5079 28.1257 27.4986 28.1226 27.4894 28.1165C27.4986 28.1226 27.5079 28.1273 27.5172 28.1319ZM27.6068 28.1779C27.6068 28.1779 27.5944 28.1733 27.5882 28.1702C27.5944 28.1733 27.6006 28.1748 27.6068 28.1779ZM27.3982 28.049C27.409 28.0582 27.4229 28.0674 27.4337 28.0766C27.4214 28.0674 27.409 28.0582 27.3982 28.049ZM27.6933 28.2101C27.6933 28.2101 27.7056 28.2132 27.7118 28.2148C27.7056 28.2132 27.6995 28.2132 27.6933 28.2101ZM36.5796 18.8119C36.5796 18.8119 36.5781 18.8103 36.5765 18.8088C36.5827 18.8119 36.5796 18.8119 36.5796 18.8119Z" fill="#D9D9D9"/>
<path d="M38.3439 22.8601L38.5108 22.4732C38.7286 21.9482 38.9341 21.3817 39.0778 20.7646C39.138 20.5082 39.1874 20.2427 39.2214 19.9725C39.24 19.8374 39.2523 19.7007 39.2631 19.5626C39.2724 19.4183 39.2801 19.2678 39.2771 19.1036C39.2693 18.7735 39.24 18.3943 39.0778 17.9368C38.9928 17.7096 38.88 17.4686 38.7023 17.2337C38.5293 17.0035 38.3084 16.7839 38.0643 16.6243C37.9036 16.5137 37.6935 16.4124 37.6008 16.374C37.5437 16.3479 37.4803 16.3234 37.4154 16.2988C37.3521 16.2743 37.2857 16.2512 37.2146 16.2297C36.9365 16.1438 36.6059 16.0839 36.2567 16.09C35.9091 16.0931 35.5554 16.1668 35.2556 16.2804C34.9544 16.394 34.6979 16.5398 34.4894 16.6888C34.3859 16.7624 34.2839 16.8392 34.1974 16.9144L34.0676 17.0265L33.9703 17.1186C33.839 17.2399 33.7092 17.3627 33.5887 17.4916C33.3384 17.7434 33.1128 18.009 32.8935 18.2746C32.8564 18.3191 32.8239 18.3652 32.7884 18.4112C32.8626 18.2255 32.9383 18.0412 33.0124 17.8539C33.2488 17.2445 33.4836 16.6335 33.7015 16.0087C33.8142 15.6986 33.9177 15.3839 34.0228 15.0692L34.3241 14.1388C34.5249 13.4941 34.7288 12.7756 34.82 11.9712C34.8648 11.5705 34.8802 11.1499 34.8524 10.7216L34.8231 10.4007L34.7767 10.0799L34.7705 10.04L34.7335 9.86495C34.7165 9.7882 34.6902 9.70376 34.667 9.62394C34.6408 9.54257 34.6083 9.45967 34.5774 9.37831C34.5403 9.29541 34.5048 9.21251 34.46 9.13115C34.2993 8.82565 34.0691 8.53704 33.8127 8.31291C33.5562 8.08877 33.2843 7.92758 33.0279 7.80937C32.963 7.7802 32.9012 7.75411 32.8378 7.72954L32.7467 7.69577C32.7158 7.68502 32.688 7.67428 32.6447 7.66046C32.4887 7.6098 32.3234 7.56682 32.1473 7.54225C31.7981 7.48852 31.415 7.50541 31.0751 7.58677C30.383 7.75104 29.901 8.1118 29.5688 8.41116C29.2691 8.67981 29.0018 8.97456 28.7593 9.28006C28.5214 9.58709 28.3159 9.90333 28.1336 10.2196C27.9544 10.5343 27.8014 10.8459 27.6608 11.1499C27.3858 11.7563 27.168 12.3243 26.9517 12.8278C26.4728 13.9101 25.9939 14.9924 25.5134 16.0762C25.4439 16.2297 25.3759 16.3833 25.3079 16.5368C25.257 16.6519 25.2044 16.767 25.1519 16.8822C25.2786 16.308 25.3991 15.7477 25.501 15.215L25.8425 13.577L26.17 11.9359C26.2766 11.3863 26.3786 10.8336 26.4759 10.2779L26.6165 9.44279L26.6829 9.02369L26.7154 8.81337L26.7323 8.69209L26.7509 8.55239C26.8003 8.11794 26.8019 7.64818 26.7184 7.16307C26.6335 6.67949 26.4604 6.18364 26.1963 5.74765C26.1329 5.63712 26.0618 5.53426 25.9877 5.42987C25.8996 5.3178 25.8193 5.20574 25.7142 5.09981C25.5196 4.88489 25.2724 4.68532 24.9974 4.51952C24.7193 4.35219 24.3903 4.2263 24.0426 4.15876C23.6935 4.08967 23.3165 4.09581 22.9643 4.16797C22.7851 4.20174 22.6182 4.26008 22.4514 4.32148C22.2953 4.3921 22.1347 4.46732 21.9987 4.5579C21.8535 4.6454 21.733 4.74519 21.611 4.84651C21.5507 4.89717 21.5013 4.9509 21.4456 5.00463C21.3962 5.05529 21.3298 5.1213 21.3066 5.15201C21.0471 5.44983 20.8014 5.75993 20.5898 6.08539C20.1572 6.73476 19.8328 7.42558 19.5763 8.10566C19.3044 8.83486 19.1128 9.55639 18.9491 10.2518L18.7235 11.2527C18.6524 11.5628 18.5737 11.876 18.4902 12.1907L18.3605 12.6666L18.0855 13.6338C17.8784 14.3553 17.6622 15.0922 17.469 15.8598C17.4304 16.0133 17.3933 16.1683 17.3578 16.3234C17.3439 16.1714 17.33 16.0225 17.3161 15.8705C17.279 15.8736 17.2419 15.8767 17.2064 15.8813C17.1276 15.0277 17.0473 14.1757 16.9422 13.3007C16.8341 12.421 16.6889 11.5076 16.4262 10.5834C16.3212 10.215 16.1991 9.845 16.0554 9.47963C15.9828 9.29695 15.9056 9.1158 15.8222 8.93618C15.7032 8.67827 15.5333 8.40041 15.3154 8.15632C15.0435 7.85082 14.6928 7.58524 14.2942 7.41637C13.8987 7.24443 13.4631 7.1646 13.0336 7.18303C12.9301 7.1861 12.8127 7.19838 12.6968 7.2168C12.584 7.23676 12.4712 7.26132 12.3646 7.29356C12.1499 7.35804 11.946 7.444 11.7621 7.55147C11.3913 7.76485 11.0808 8.05039 10.8444 8.37431C10.7239 8.5355 10.6251 8.70744 10.5416 8.88245C10.5015 8.96996 10.4613 9.059 10.4304 9.14804L10.3841 9.27852L10.3578 9.36603C10.2836 9.60091 10.2188 9.83732 10.1631 10.0722C10.0488 10.545 9.96693 11.0163 9.90977 11.483C9.82171 12.1831 9.78618 12.8693 9.77073 13.534C9.763 13.8671 9.75991 14.1956 9.75837 14.518C9.75837 14.8404 9.75837 15.1766 9.76609 15.5051C9.78927 16.8238 9.87269 18.1272 9.98083 19.4167L10.0921 19.4075C10.123 19.7483 10.1539 20.0907 10.1832 20.4346L10.2327 20.9473L10.5864 24.4966L10.6652 25.3609C10.6853 25.6219 10.693 25.8721 10.6853 26.1054C10.6822 26.2037 10.673 26.2958 10.6637 26.3879C10.6482 26.371 10.6343 26.3541 10.6189 26.3388C9.49264 25.0938 8.13312 24.0284 6.61756 23.2485L6.56657 23.3468C6.03358 23.0689 5.43261 22.8417 4.81464 22.7143C4.19667 22.5853 3.55708 22.5469 2.93757 22.5945C2.84642 22.6068 2.74754 22.6191 2.64558 22.6329C2.53898 22.6498 2.45247 22.659 2.29643 22.6882C2.01217 22.7419 1.68773 22.8401 1.35867 23.0259C1.03114 23.2086 0.708257 23.4941 0.484245 23.8365C0.373011 24.0053 0.280316 24.185 0.215429 24.363C0.181441 24.4505 0.155178 24.5426 0.130459 24.624C0.11192 24.6931 0.0949261 24.7622 0.079477 24.8343C0.0161355 25.1183 -0.0147628 25.433 0.006866 25.7462C0.0284948 26.0609 0.10883 26.3695 0.223154 26.6213C0.335933 26.873 0.474975 27.0665 0.597023 27.2016C0.657275 27.266 0.719072 27.3228 0.765419 27.3597C0.800952 27.3812 0.83185 27.3965 0.859659 27.4042C1.96118 28.8043 2.28716 28.7705 3.27282 30.0216C3.77491 30.585 4.39906 31.48 4.60762 31.5154C5.04483 31.9928 5.53766 32.6606 5.96251 33.2747C6.41054 33.9225 6.84002 34.4736 7.13356 34.6793C7.2278 34.8221 7.32204 34.9633 7.41473 35.1046C7.92764 35.7278 8.13621 35.5436 8.80515 36.629C8.94574 36.3787 9.1574 36.322 9.43548 36.4586C9.57607 36.5261 9.7321 36.6428 9.90359 36.8071C9.9901 36.8884 10.0782 36.9851 10.1724 37.0926C10.2141 37.1371 10.2775 37.2216 10.3362 37.306C10.3949 37.3904 10.4551 37.4795 10.5154 37.5746C10.4582 37.4488 10.4088 37.3382 10.3702 37.243C10.3501 37.1955 10.3331 37.1509 10.3192 37.111C10.3068 37.0757 10.3037 37.0527 10.2991 37.0266C10.2852 36.9299 10.313 36.8807 10.3902 36.8854L10.7749 36.6628C10.4551 36.0901 10.1461 35.5713 10.4103 35.6342C9.64404 34.5197 9.04925 33.706 8.51008 32.877C8.23508 32.4595 8.00489 32.0696 7.68818 31.5553C7.38229 31.0656 7.04395 30.5528 6.65309 29.9909C6.25914 29.4935 5.73077 28.7858 5.57474 28.8027C4.98304 28.0213 4.57981 27.6329 4.18123 27.2445C3.78264 26.8577 3.38096 26.4754 2.79389 25.7401L2.72746 25.6633C2.72746 25.6633 2.71974 25.651 2.71356 25.6464C2.70738 25.6372 2.70274 25.6295 2.69965 25.6249C2.69502 25.6142 2.69347 25.6127 2.69038 25.6004C2.6842 25.5804 2.67648 25.4944 2.71356 25.3363L2.72283 25.2979C2.73828 25.2918 2.7599 25.2857 2.79235 25.2795L2.77072 25.1705C2.78926 25.1659 2.87114 25.1552 2.93448 25.1475C3.00091 25.1383 3.0658 25.1352 3.13223 25.1275C3.26355 25.1183 3.39332 25.1137 3.52309 25.1153C3.78109 25.1199 4.036 25.146 4.28628 25.1997C4.294 25.1629 4.30173 25.1275 4.30945 25.0922C4.53347 25.1398 4.75593 25.2058 4.97222 25.2918C5.1916 25.3762 5.39244 25.4791 5.64272 25.6127C6.11546 25.8706 6.57121 26.1607 7.00378 26.4831C7.43636 26.807 7.84885 27.157 8.23508 27.5393C8.42974 27.7281 8.61513 27.9277 8.79743 28.1288C8.88549 28.2332 8.97819 28.333 9.0647 28.4389L9.19602 28.597L9.31807 28.7367C9.35978 28.7843 9.40304 28.8304 9.45711 28.8795C9.67958 29.0913 9.98238 29.3139 10.4103 29.4321C10.52 29.4582 10.6297 29.4813 10.744 29.4935C10.8614 29.4997 10.9804 29.5074 11.0978 29.4935C11.2168 29.4797 11.3373 29.4644 11.4485 29.4291C11.5628 29.3968 11.6725 29.3569 11.7698 29.3063C12.1762 29.1067 12.4434 28.8165 12.6257 28.5417L12.6937 28.4374L12.7493 28.3345C12.7849 28.2654 12.8235 28.1948 12.8482 28.1288C12.8745 28.0628 12.9069 27.9876 12.927 27.9292L12.9795 27.7711C13.0459 27.5608 13.0969 27.3474 13.1371 27.1355C13.2159 26.7103 13.2437 26.2943 13.2421 25.8967C13.2421 25.6986 13.2329 25.5037 13.2221 25.3133L13.2004 25.0324L13.1773 24.7729C13.0537 23.4051 12.9054 22.0511 12.7756 20.7063L12.6644 20.717C12.4512 18.5279 12.2874 16.374 12.3152 14.2156C12.3229 12.966 12.3801 11.7701 12.6474 10.6663C12.6798 10.5281 12.7169 10.3915 12.757 10.258L12.8188 10.0569C12.8327 10.02 12.8405 9.99544 12.8544 9.96781C12.9038 9.86342 12.9749 9.78973 13.0382 9.75596C13.0691 9.73754 13.0969 9.72986 13.1139 9.72526C13.117 9.72526 13.1356 9.72219 13.1541 9.72526C13.1711 9.72526 13.1896 9.72526 13.2066 9.72986C13.2761 9.74368 13.3348 9.77285 13.3951 9.84039C13.4291 9.87877 13.4584 9.92329 13.494 9.99852C13.9312 10.9411 14.1753 12.0019 14.3344 13.1256L14.4441 13.1103C14.5677 13.9961 14.6542 14.9264 14.7407 15.849C14.8257 16.7747 14.906 17.7096 15.0018 18.6492C15.0373 19.0038 15.076 19.3599 15.1192 19.7176L15.1501 19.9786C15.1563 20.0446 15.164 20.1122 15.1671 20.1889C15.1764 20.3394 15.181 20.5067 15.1872 20.6955C15.1949 20.8813 15.2026 21.0824 15.2305 21.305C15.2552 21.523 15.3 21.764 15.3834 22.0127C15.4606 22.2599 15.5873 22.5178 15.7495 22.7465C15.9087 22.9829 16.1141 23.1733 16.3196 23.3422C16.6162 23.5847 17.0457 23.6354 17.4011 23.4373L17.4273 23.422C17.7363 23.25 18.0422 22.9906 18.2631 22.679C18.484 22.3673 18.6169 22.0311 18.6957 21.7348C18.7838 21.4094 18.8193 21.1008 18.8564 20.8982C18.895 20.6802 18.946 20.4576 19.0062 20.2288C19.1453 19.6961 19.3322 19.1297 19.4929 18.5095C19.533 18.3544 19.5701 18.1947 19.6057 18.0336L19.6953 17.5853C19.7493 17.3074 19.8127 17.0296 19.8791 16.7517C19.8436 16.7425 19.808 16.7348 19.771 16.7256C19.9919 15.806 20.2684 14.8819 20.5403 13.9347C20.6763 13.4618 20.8107 12.9829 20.9343 12.4962C21.0594 12.0142 21.1707 11.4999 21.2726 11.044C21.4827 10.1137 21.7237 9.22019 22.0868 8.41423C22.2675 8.01201 22.4777 7.63283 22.7233 7.28281C22.8469 7.1078 22.9782 6.94201 23.1172 6.78235C23.1559 6.73322 23.176 6.71941 23.196 6.69792C23.2161 6.67335 23.2393 6.65954 23.2594 6.64265C23.3011 6.60888 23.3413 6.58892 23.3768 6.5705C23.4479 6.53979 23.5066 6.53672 23.5745 6.54593C23.6425 6.55668 23.7229 6.58892 23.8094 6.6534C23.9747 6.7716 24.1693 7.08017 24.2512 7.36725C24.3408 7.66507 24.3532 8.00894 24.2991 8.38045C24.2327 8.82719 24.157 9.28773 24.0797 9.74061C23.9221 10.651 23.7476 11.5613 23.5653 12.4732L23.2856 13.8426L22.9952 15.2058C22.5626 17.1892 22.0899 19.1911 21.7546 21.2451C21.716 21.4769 21.6805 21.7087 21.6465 21.9405L21.5955 22.2814C21.5785 22.3965 21.56 22.527 21.5461 22.6697C21.5213 22.9507 21.5074 23.3038 21.6341 23.7014C21.6944 23.8963 21.7963 24.0975 21.9261 24.2679C22.0543 24.4444 22.2088 24.578 22.3633 24.6946C22.5549 24.8389 22.8113 24.9034 23.0647 24.8451L23.0894 24.8389C23.3397 24.7806 23.5962 24.6716 23.814 24.5227C24.0334 24.3753 24.2157 24.1957 24.3547 24.0222C24.4953 23.8472 24.6035 23.6768 24.6946 23.5218C24.7858 23.3652 24.8584 23.2316 24.9356 23.0904C25.2461 22.5285 25.5443 21.962 25.8317 21.3925C26.4095 20.2534 26.9471 19.1005 27.4677 17.9461C27.9899 16.7916 28.4935 15.6372 29.0034 14.4904L29.1949 14.0606L29.3896 13.6092L29.7511 12.7372C29.9875 12.1723 30.23 11.6473 30.5251 11.1913C30.658 10.981 30.8078 10.7922 30.9623 10.6126C31.0442 10.5266 31.123 10.4376 31.2111 10.3593C31.3022 10.2702 31.3702 10.2134 31.4366 10.1674C31.503 10.1213 31.5633 10.0906 31.6096 10.0737C31.6575 10.0569 31.69 10.0538 31.724 10.0538C31.7595 10.0538 31.7919 10.0584 31.8553 10.0814C31.9387 10.1106 32.0051 10.1444 32.0546 10.1766C32.1488 10.2457 32.1782 10.2825 32.2168 10.3854C32.2245 10.413 32.2322 10.4422 32.24 10.476L32.2647 10.6448C32.2786 10.76 32.291 10.8766 32.294 10.9948C32.3172 11.4646 32.2461 11.9543 32.1287 12.4609C32.0067 12.9691 31.8367 13.491 31.6575 14.0421L31.3903 14.8435L31.1075 15.6402C30.7198 16.6995 30.2949 17.7526 29.8577 18.8088C29.8237 18.795 29.7897 18.7812 29.7557 18.7674C28.8489 20.9534 27.8818 23.1549 27.0846 25.4561C26.995 25.717 26.8637 26.0486 26.8019 26.477C26.7725 26.6888 26.7617 26.9268 26.7926 27.1693C26.8219 27.4119 26.8899 27.6498 26.9826 27.8617L26.9857 27.8693C27.1402 28.2209 27.494 28.465 27.9049 28.4604C27.9945 28.4604 28.0795 28.4604 28.1954 28.4542C28.3082 28.4466 28.4549 28.442 28.6774 28.3775C28.7855 28.3452 28.903 28.2946 28.9972 28.2393C29.0883 28.1856 29.1625 28.1334 29.2135 28.0919C29.3201 28.0075 29.3834 27.9507 29.4421 27.8985L29.5286 27.8233L29.6337 27.7296C29.7017 27.6667 29.7743 27.6053 29.8407 27.5393C29.9736 27.4088 30.1033 27.2768 30.2254 27.1386C30.7182 26.5906 31.1122 26.0026 31.4675 25.4315C31.8136 24.8896 32.1318 24.3369 32.464 23.815C32.552 23.6784 32.6401 23.5417 32.7282 23.4036C32.8224 23.2593 32.9089 23.1149 33.0001 22.9691C33.1731 22.682 33.3477 22.3934 33.5222 22.1017C34.2066 20.955 34.8926 19.8619 35.7701 19.0514L35.8504 18.9746L35.9138 18.9193C35.9555 18.8856 35.9957 18.8533 36.0327 18.8288C36.1084 18.7781 36.1687 18.7505 36.2104 18.7382C36.2537 18.7259 36.2784 18.7228 36.3247 18.7275C36.3695 18.7321 36.4375 18.7505 36.5225 18.7873C36.5441 18.7965 36.5534 18.8011 36.5595 18.8042C36.5626 18.8103 36.5704 18.8272 36.5796 18.861C36.6105 18.9685 36.6183 19.1941 36.5889 19.4474C36.5364 19.954 36.3927 20.4514 36.2011 20.9289C36.1053 21.1684 35.9987 21.4017 35.886 21.6304C35.8257 21.7486 35.767 21.8653 35.7098 21.9789C35.6496 22.0956 35.5893 22.2107 35.5306 22.3243C34.942 23.5525 34.2762 25.1045 33.6103 26.5399C32.9444 27.9737 32.277 29.2878 31.7332 30.0523C31.415 30.5943 31.0241 31.3972 30.6302 32.1325C30.2408 32.8694 29.85 33.5387 29.5812 33.8319L29.5209 33.9486C29.4931 33.9732 29.4498 34.0207 29.4159 34.0422C29.1455 34.5703 28.8103 35.1168 28.4549 35.6311C28.3638 35.7601 28.2757 35.8906 28.1799 36.0165C27.993 36.2713 27.7999 36.52 27.5975 36.761C27.1943 37.0512 26.547 37.7727 25.7513 38.4666C25.3527 38.8105 24.9263 39.1574 24.4922 39.446C24.0581 39.7331 23.6302 39.9818 23.2439 40.146C22.2953 40.6526 21.5322 40.8491 20.8061 40.9674C20.4415 41.0211 20.0846 41.0656 19.7014 41.084C19.6057 41.0902 19.5099 41.0978 19.411 41.1055C19.3121 41.1086 19.2102 41.1101 19.1066 41.1132C19.0031 41.1178 18.8965 41.1209 18.7884 41.1255C18.6741 41.1255 18.5567 41.1255 18.4346 41.1255C16.8681 41.1316 15.334 40.9198 14.0471 40.3656C13.185 40.1522 12.394 39.7454 11.7822 39.294C11.5041 39.0453 11.2508 38.7905 11.0283 38.5571C10.8089 38.3223 10.622 38.1119 10.4628 37.9676C10.3841 37.897 10.3099 37.8402 10.2435 37.8095C10.2095 37.7926 10.177 37.785 10.1446 37.7788C10.14 37.7773 10.1369 37.7788 10.1322 37.7757C10.1276 37.7696 10.123 37.765 10.1168 37.7604C10.1075 37.7512 10.0967 37.745 10.0874 37.7404C10.0689 37.7328 10.0534 37.7343 10.0395 37.7435C9.99474 37.8126 9.92985 37.8356 9.88505 37.9247C9.84025 38.0106 9.80626 38.1365 9.79699 38.3085L9.27172 38.4896C9.39222 38.8074 9.47101 38.9947 9.50655 39.1344C9.54517 39.271 9.54053 39.357 9.53745 39.4353C9.53127 39.5888 9.48801 39.7377 9.81089 40.2044C9.7939 40.3118 9.96693 40.5989 10.2033 40.8906C10.4366 41.1869 10.7363 41.4724 10.897 41.6674C11.3558 42.0711 11.9521 42.458 12.6056 42.762C13.2591 43.069 13.9667 43.2977 14.6449 43.4605C16.006 43.7767 17.2419 43.8581 17.8908 43.9962C18.0885 44.0054 18.2832 43.9947 18.4763 43.9962C18.6694 43.9947 18.861 43.9947 19.0618 43.9793C19.2596 43.9671 19.4558 43.9563 19.652 43.9456C19.8467 43.9241 20.0413 43.9011 20.2344 43.8796C21.0053 43.7782 21.7577 43.6278 22.4777 43.4021C23.9221 42.9707 25.2353 42.3075 26.4141 41.5047C27.5882 40.6941 28.6372 39.75 29.5626 38.6892C30.0261 38.1595 30.4602 37.6007 30.865 37.0097C31.0689 36.715 31.2636 36.411 31.4521 36.0963C31.5463 35.9397 31.639 35.78 31.7286 35.6142C31.7734 35.5329 31.8182 35.4484 31.863 35.3625L31.931 35.2304L31.9665 35.1583C32.0129 35.08 32.0608 34.9971 32.1102 34.9127C32.2755 34.8789 32.6092 34.3278 32.9645 33.6677C33.3183 33.0075 33.6937 32.2415 33.9703 31.7809C35.3406 29.1758 36.575 26.523 37.7661 23.8749L37.8681 23.9194L38.1833 23.2163L38.3408 22.8616L38.3439 22.8601ZM22.8515 24.3753C22.8314 24.3738 22.8098 24.3707 22.7897 24.3661C22.8098 24.3707 22.8299 24.3738 22.8515 24.3753ZM22.9102 24.0882C22.8963 24.0913 22.8809 24.0913 22.867 24.0882C22.8809 24.0913 22.8963 24.0928 22.9102 24.0882ZM22.6028 24.6962C22.6028 24.6962 22.5966 24.6931 22.592 24.6931C22.5951 24.6931 22.5982 24.6962 22.6028 24.6962ZM22.5302 24.6624C22.5302 24.6624 22.5225 24.6578 22.5178 24.6563C22.5225 24.6578 22.5255 24.6609 22.5302 24.6624ZM22.9396 24.3722C22.9149 24.3769 22.8901 24.3784 22.8654 24.3769C22.8901 24.3769 22.9164 24.3769 22.9411 24.3707L22.9859 24.3615L22.9396 24.3707V24.3722ZM27.3565 28.0075C27.3441 27.9952 27.3302 27.9829 27.3194 27.9691C27.3318 27.9829 27.3441 27.9952 27.3565 28.0075ZM27.5172 28.1319C27.5079 28.1257 27.4986 28.1226 27.4894 28.1165C27.4986 28.1226 27.5079 28.1273 27.5172 28.1319ZM27.6068 28.1779C27.6068 28.1779 27.5944 28.1733 27.5882 28.1702C27.5944 28.1733 27.6006 28.1748 27.6068 28.1779ZM27.3982 28.049C27.409 28.0582 27.4229 28.0674 27.4337 28.0766C27.4214 28.0674 27.409 28.0582 27.3982 28.049ZM27.6933 28.2101C27.6933 28.2101 27.7056 28.2132 27.7118 28.2148C27.7056 28.2132 27.6995 28.2132 27.6933 28.2101ZM36.5796 18.8119C36.5796 18.8119 36.5781 18.8103 36.5765 18.8088C36.5827 18.8119 36.5796 18.8119 36.5796 18.8119Z" fill="url(#paint0_linear_8_4461)"/>
<path d="M44.9144 20.9488C44.8218 20.7447 45.0226 20.6387 44.9979 20.4545C44.9932 20.3056 44.9701 20.1582 44.9562 20.0108C44.8078 19.9326 44.6657 19.8543 44.485 19.7975C44.2826 19.6639 43.7619 19.6178 43.2537 19.7852C43.0698 19.8097 42.886 19.8343 42.7021 19.8573C42.7454 19.9402 42.3885 19.9402 42.3839 20.0124C42.2294 20.0416 42.2665 20.1091 42.1753 20.149C42.1181 20.3025 42.3653 20.5251 42.1135 20.6311C42.163 20.8398 42.1475 21.0348 42.1212 21.2236C42.0872 21.4125 42.0394 21.5967 42.0378 21.7947C41.7922 21.807 41.9915 21.9713 41.9204 22.0449C41.908 22.2491 41.9096 22.4518 41.8864 22.6559L41.7752 22.6467L41.7551 22.8601L41.7397 23.0382C41.7335 23.1211 41.7196 23.204 41.7087 23.2869C41.6779 23.488 41.6593 23.6906 41.6176 23.8902L41.5357 24.3339L41.4353 24.7745C41.3998 24.951 41.3442 25.126 41.2993 25.301C41.2592 25.4653 41.2051 25.628 41.1557 25.7907L41.0815 26.0348L41.0692 26.0686L40.9255 26.4831L40.9131 26.5184C41.0908 26.7794 40.7648 27.0265 40.737 27.2798C40.6737 27.4272 40.6149 27.5761 40.5485 27.7235C40.4697 27.8924 40.3971 28.0628 40.3152 28.2301L40.1839 28.4972L40.1669 28.531L40.1345 28.5985C40.0248 28.8089 39.9197 29.0192 39.8039 29.2264L39.7668 29.2924C39.705 29.4014 39.6478 29.512 39.5829 29.6194C39.6154 29.6379 39.6463 29.6563 39.6787 29.6747L39.4887 30.0002L39.4099 30.1291L39.2106 30.45C39.1071 30.6081 39.0082 30.7677 38.9001 30.9228L38.9928 30.9842L38.9511 31.0471L38.9294 31.0778C38.8321 31.2252 38.7271 31.368 38.6266 31.5138L38.5602 31.6059L38.5154 31.6673C38.449 31.7594 38.381 31.85 38.313 31.9406L38.4026 32.0066L38.2651 32.1878C38.262 32.2998 37.987 32.3182 38.1647 32.4948C38.0118 32.5408 38.2018 32.7113 38.0828 32.7711C38.0612 32.8264 37.9623 32.854 38.0705 32.9584C38.0983 33.1104 37.9592 33.1979 38.1245 33.4067L38.0998 33.4358C38.123 33.5372 38.3254 33.7122 38.2451 33.772C38.6328 34.0944 38.8553 34.337 38.8908 34.5427C38.9387 34.5273 38.999 34.5642 39.0886 34.6563L39.4146 34.9572C39.4655 34.9203 39.5165 34.8942 39.6463 35.0339C39.7297 34.7853 39.8054 34.6962 40.0341 34.5903C40.0541 34.5396 40.1283 34.5059 40.0341 34.4184C40.1994 34.3431 40.0047 34.1543 40.1669 34.0791L40.3539 33.8427L40.2658 33.7751L40.3708 33.64L40.2828 33.574C40.4033 33.4159 40.5223 33.2578 40.6381 33.0966L40.6628 33.0628C40.7942 32.8786 40.927 32.6944 41.0522 32.5071L40.9595 32.4457C41.063 32.2952 41.1649 32.1432 41.2623 31.9882C41.3781 31.8116 41.4894 31.632 41.5991 31.4524L41.6207 31.4171C41.6732 31.3342 41.7227 31.2482 41.7721 31.1638L41.6763 31.107C41.7536 30.9734 41.8339 30.843 41.908 30.7079L42.1321 30.3041L42.1908 30.192L42.3267 29.9311C42.2943 29.9142 42.2603 29.8973 42.2278 29.8804C42.3035 29.7392 42.3731 29.5933 42.4441 29.449C42.5152 29.3047 42.5863 29.1604 42.6511 29.013C42.7809 28.7352 42.9014 28.4512 43.0204 28.1672C43.0868 28.0137 43.1424 27.854 43.2042 27.6974C43.3803 27.2399 43.5348 26.7732 43.677 26.3004C43.7341 26.1193 43.7774 25.9335 43.8284 25.7508C43.8794 25.5681 43.9226 25.3824 43.9628 25.1966C43.9983 25.2043 44.0354 25.2135 44.0709 25.2212C44.1142 25.0278 44.1605 24.8343 44.193 24.6378L44.2764 24.1757C44.3444 23.9777 44.3382 23.7382 44.3552 23.5126C44.3706 23.2869 44.3938 23.072 44.5406 22.9108C44.641 22.6851 44.4278 22.3305 44.6951 22.1816C44.7708 22.0649 44.5668 21.8346 44.8156 21.7916V21.4846C45.0705 21.391 44.8573 21.1177 44.9129 20.9534L44.9144 20.9488Z" fill="#D9D9D9"/>
<path d="M44.9144 20.9488C44.8218 20.7447 45.0226 20.6387 44.9979 20.4545C44.9932 20.3056 44.9701 20.1582 44.9562 20.0108C44.8078 19.9326 44.6657 19.8543 44.485 19.7975C44.2826 19.6639 43.7619 19.6178 43.2537 19.7852C43.0698 19.8097 42.886 19.8343 42.7021 19.8573C42.7454 19.9402 42.3885 19.9402 42.3839 20.0124C42.2294 20.0416 42.2665 20.1091 42.1753 20.149C42.1181 20.3025 42.3653 20.5251 42.1135 20.6311C42.163 20.8398 42.1475 21.0348 42.1212 21.2236C42.0872 21.4125 42.0394 21.5967 42.0378 21.7947C41.7922 21.807 41.9915 21.9713 41.9204 22.0449C41.908 22.2491 41.9096 22.4518 41.8864 22.6559L41.7752 22.6467L41.7551 22.8601L41.7397 23.0382C41.7335 23.1211 41.7196 23.204 41.7087 23.2869C41.6779 23.488 41.6593 23.6906 41.6176 23.8902L41.5357 24.3339L41.4353 24.7745C41.3998 24.951 41.3442 25.126 41.2993 25.301C41.2592 25.4653 41.2051 25.628 41.1557 25.7907L41.0815 26.0348L41.0692 26.0686L40.9255 26.4831L40.9131 26.5184C41.0908 26.7794 40.7648 27.0265 40.737 27.2798C40.6737 27.4272 40.6149 27.5761 40.5485 27.7235C40.4697 27.8924 40.3971 28.0628 40.3152 28.2301L40.1839 28.4972L40.1669 28.531L40.1345 28.5985C40.0248 28.8089 39.9197 29.0192 39.8039 29.2264L39.7668 29.2924C39.705 29.4014 39.6478 29.512 39.5829 29.6194C39.6154 29.6379 39.6463 29.6563 39.6787 29.6747L39.4887 30.0002L39.4099 30.1291L39.2106 30.45C39.1071 30.6081 39.0082 30.7677 38.9001 30.9228L38.9928 30.9842L38.9511 31.0471L38.9294 31.0778C38.8321 31.2252 38.7271 31.368 38.6266 31.5138L38.5602 31.6059L38.5154 31.6673C38.449 31.7594 38.381 31.85 38.313 31.9406L38.4026 32.0066L38.2651 32.1878C38.262 32.2998 37.987 32.3182 38.1647 32.4948C38.0118 32.5408 38.2018 32.7113 38.0828 32.7711C38.0612 32.8264 37.9623 32.854 38.0705 32.9584C38.0983 33.1104 37.9592 33.1979 38.1245 33.4067L38.0998 33.4358C38.123 33.5372 38.3254 33.7122 38.2451 33.772C38.6328 34.0944 38.8553 34.337 38.8908 34.5427C38.9387 34.5273 38.999 34.5642 39.0886 34.6563L39.4146 34.9572C39.4655 34.9203 39.5165 34.8942 39.6463 35.0339C39.7297 34.7853 39.8054 34.6962 40.0341 34.5903C40.0541 34.5396 40.1283 34.5059 40.0341 34.4184C40.1994 34.3431 40.0047 34.1543 40.1669 34.0791L40.3539 33.8427L40.2658 33.7751L40.3708 33.64L40.2828 33.574C40.4033 33.4159 40.5223 33.2578 40.6381 33.0966L40.6628 33.0628C40.7942 32.8786 40.927 32.6944 41.0522 32.5071L40.9595 32.4457C41.063 32.2952 41.1649 32.1432 41.2623 31.9882C41.3781 31.8116 41.4894 31.632 41.5991 31.4524L41.6207 31.4171C41.6732 31.3342 41.7227 31.2482 41.7721 31.1638L41.6763 31.107C41.7536 30.9734 41.8339 30.843 41.908 30.7079L42.1321 30.3041L42.1908 30.192L42.3267 29.9311C42.2943 29.9142 42.2603 29.8973 42.2278 29.8804C42.3035 29.7392 42.3731 29.5933 42.4441 29.449C42.5152 29.3047 42.5863 29.1604 42.6511 29.013C42.7809 28.7352 42.9014 28.4512 43.0204 28.1672C43.0868 28.0137 43.1424 27.854 43.2042 27.6974C43.3803 27.2399 43.5348 26.7732 43.677 26.3004C43.7341 26.1193 43.7774 25.9335 43.8284 25.7508C43.8794 25.5681 43.9226 25.3824 43.9628 25.1966C43.9983 25.2043 44.0354 25.2135 44.0709 25.2212C44.1142 25.0278 44.1605 24.8343 44.193 24.6378L44.2764 24.1757C44.3444 23.9777 44.3382 23.7382 44.3552 23.5126C44.3706 23.2869 44.3938 23.072 44.5406 22.9108C44.641 22.6851 44.4278 22.3305 44.6951 22.1816C44.7708 22.0649 44.5668 21.8346 44.8156 21.7916V21.4846C45.0705 21.391 44.8573 21.1177 44.9129 20.9534L44.9144 20.9488Z" fill="url(#paint1_linear_8_4461)"/>
<path d="M2.43856 13.4112C2.32115 13.5647 2.57297 13.623 2.49727 13.7689C2.50654 13.8441 2.43238 13.9454 2.58224 13.9807C2.63477 14.0529 2.64249 14.1388 2.6703 14.2171C2.69656 14.2954 2.74754 14.3768 2.87577 14.4167L2.87268 14.4674C2.95147 14.5518 3.22183 14.5595 3.20329 14.6854C3.45512 14.6623 3.66368 14.6639 3.83053 14.6746C3.90932 14.6915 3.98193 14.6838 4.04064 14.6608C4.06072 14.6608 4.08081 14.6623 4.10244 14.6623C4.13333 14.6623 4.16423 14.6639 4.19513 14.6654H4.23993C4.25538 14.6654 4.26929 14.6577 4.28319 14.6531C4.33572 14.6332 4.37897 14.6025 4.40524 14.5626C4.45313 14.5687 4.49793 14.581 4.53656 14.6055C4.57209 14.6009 4.58754 14.5871 4.59372 14.5748C4.5999 14.5641 4.59835 14.5549 4.5999 14.5472C4.60299 14.5319 4.62462 14.518 4.7652 14.4996C4.73276 14.5011 4.69723 14.5027 4.66015 14.5027L4.84399 14.4628C4.8579 14.5073 4.86871 14.5518 4.87798 14.5917C4.88725 14.6501 4.89652 14.6209 4.91197 14.6255C4.94287 14.6224 4.9954 14.6194 5.08964 14.6163C5.07728 14.6163 5.06646 14.6163 5.05565 14.6163H5.04174C5.03865 14.6086 5.03556 14.5994 5.03247 14.5917C5.02166 14.561 5.01702 14.5319 5.01857 14.5027C5.02166 14.4474 5.06028 14.3661 5.12053 14.2832C5.10663 14.2402 5.15452 14.1757 5.02475 14.1542C5.12362 14.0191 4.8579 13.9592 4.96295 13.8165C4.97995 13.7197 4.99385 13.6246 5.01239 13.5279L4.9027 13.5079L4.93514 13.339C4.89807 13.3329 4.86253 13.3252 4.82546 13.3191C4.86099 13.1226 4.90579 12.9245 4.9475 12.7265L4.95677 12.6835C5.01084 12.4578 5.06028 12.2306 5.12053 12.005L5.01239 11.9773C5.05874 11.7931 5.10663 11.6089 5.15916 11.4262C5.21632 11.2144 5.27966 11.004 5.343 10.7937L5.35536 10.7523C5.38471 10.654 5.41561 10.5558 5.44806 10.4591L5.34146 10.4253L5.49286 9.96474L5.65507 9.5088C5.67052 9.46735 5.68443 9.4259 5.69988 9.38445L5.80957 9.09737C5.77558 9.08356 5.74004 9.07128 5.70606 9.05746C5.82502 8.73968 5.95942 8.43111 6.09074 8.12101C6.2236 7.82779 6.35492 7.53458 6.50169 7.24904C6.57739 7.09092 6.65772 6.93586 6.74269 6.78388L6.92499 6.44922L7.11965 6.12376C7.24479 5.9027 7.38847 5.69699 7.52442 5.48667C7.74225 5.16889 7.96936 4.85725 8.215 4.56711L8.29997 4.63773C8.42047 4.48268 8.55488 4.34298 8.6862 4.20174L8.84069 4.03441L9.00445 3.88089C9.08942 3.82716 9.16512 3.75501 9.23928 3.67671C9.31343 3.59842 9.39377 3.52627 9.47101 3.45258C9.5498 3.38043 9.63014 3.31288 9.7182 3.26683C9.80781 3.22691 9.90359 3.20542 10.004 3.21463C10.0581 3.20081 10.106 3.16704 10.1523 3.12866C10.1755 3.1087 10.1987 3.08721 10.2218 3.06572C10.2466 3.0473 10.2713 3.02888 10.2945 3.01199C10.3933 2.94291 10.4968 2.89685 10.6173 2.97668C10.7332 2.98129 10.8259 2.72184 10.9649 2.9337L11.0978 2.87689L11.1318 2.86308L11.1982 2.83391C11.277 2.9337 11.3496 2.92602 11.4207 2.89071C11.4918 2.8554 11.5659 2.79553 11.637 2.80935C11.671 2.77711 11.705 2.76329 11.7374 2.76022C11.7714 2.76022 11.8038 2.77404 11.8363 2.78786C11.9012 2.81549 11.963 2.85387 12.0309 2.83238C12.1422 2.81088 12.2519 2.78171 12.3677 2.78018C12.4233 2.63741 12.4882 2.49924 12.5423 2.3227C12.6566 2.1262 12.774 1.60578 12.6474 1.09457C12.6412 0.910352 12.6335 0.726132 12.6273 0.541912C12.5114 0.584897 12.5562 0.227204 12.4542 0.224134C12.4311 0.0706175 12.3276 0.107461 12.275 0.0168868C12.1607 -0.00921098 12.017 0.0399142 11.8857 0.0644768C11.7529 0.0967152 11.6323 0.113602 11.5427 0C11.3852 0.0491252 11.2322 0.0828988 11.0824 0.107461C10.9356 0.141235 10.7919 0.171938 10.6467 0.196501C10.503 0.225669 10.3532 0.241021 10.2126 0.28247C10.072 0.323919 9.92831 0.371509 9.78618 0.431381C9.66104 0.217993 9.505 0.498928 9.37832 0.501998C9.09714 0.65705 8.80825 0.804425 8.55333 0.988645L8.49154 0.896535L8.21036 1.0869C8.13003 1.13909 8.05896 1.19589 7.98635 1.25423L7.68355 1.49678L7.50125 1.64569L7.33131 1.80382L6.99452 2.12006C6.68244 2.44091 6.37809 2.7679 6.10928 3.11024C5.93625 3.31135 5.79103 3.5232 5.63654 3.73198C5.48822 3.92541 5.36309 4.12652 5.23022 4.32609C5.16534 4.42587 5.09582 4.52412 5.03711 4.62698L5.01085 4.66996L4.70032 5.19192L4.6756 5.23644C4.78374 5.58185 4.36198 5.88121 4.28474 6.21434C4.18895 6.40623 4.09317 6.59813 4.00665 6.7931C3.90623 7.01723 3.80118 7.23983 3.70848 7.46703L3.55708 7.82779L3.53854 7.87231L3.50301 7.96289C3.39332 8.2515 3.27745 8.53858 3.17858 8.82872L3.14613 8.92083C3.09206 9.07281 3.03799 9.22633 2.98855 9.37984C3.02408 9.39059 3.05807 9.40287 3.09361 9.41515L2.94375 9.87417L2.88813 10.0584L2.75063 10.5205C2.68729 10.7538 2.61777 10.9841 2.56061 11.219L2.66875 11.2466L2.64558 11.3402L2.63322 11.3863C2.57606 11.6028 2.52662 11.8223 2.47564 12.0418L2.4432 12.1831L2.42311 12.2782L2.33351 12.705L2.4432 12.7265L2.38912 13.012C2.43238 13.1364 2.19138 13.3406 2.43238 13.4158L2.43856 13.4112Z" fill="#D9D9D9"/>
<path d="M2.43856 13.4112C2.32115 13.5647 2.57297 13.623 2.49727 13.7689C2.50654 13.8441 2.43238 13.9454 2.58224 13.9807C2.63477 14.0529 2.64249 14.1388 2.6703 14.2171C2.69656 14.2954 2.74754 14.3768 2.87577 14.4167L2.87268 14.4674C2.95147 14.5518 3.22183 14.5595 3.20329 14.6854C3.45512 14.6623 3.66368 14.6639 3.83053 14.6746C3.90932 14.6915 3.98193 14.6838 4.04064 14.6608C4.06072 14.6608 4.08081 14.6623 4.10244 14.6623C4.13333 14.6623 4.16423 14.6639 4.19513 14.6654H4.23993C4.25538 14.6654 4.26929 14.6577 4.28319 14.6531C4.33572 14.6332 4.37897 14.6025 4.40524 14.5626C4.45313 14.5687 4.49793 14.581 4.53656 14.6055C4.57209 14.6009 4.58754 14.5871 4.59372 14.5748C4.5999 14.5641 4.59835 14.5549 4.5999 14.5472C4.60299 14.5319 4.62462 14.518 4.7652 14.4996C4.73276 14.5011 4.69723 14.5027 4.66015 14.5027L4.84399 14.4628C4.8579 14.5073 4.86871 14.5518 4.87798 14.5917C4.88725 14.6501 4.89652 14.6209 4.91197 14.6255C4.94287 14.6224 4.9954 14.6194 5.08964 14.6163C5.07728 14.6163 5.06646 14.6163 5.05565 14.6163H5.04174C5.03865 14.6086 5.03556 14.5994 5.03247 14.5917C5.02166 14.561 5.01702 14.5319 5.01857 14.5027C5.02166 14.4474 5.06028 14.3661 5.12053 14.2832C5.10663 14.2402 5.15452 14.1757 5.02475 14.1542C5.12362 14.0191 4.8579 13.9592 4.96295 13.8165C4.97995 13.7197 4.99385 13.6246 5.01239 13.5279L4.9027 13.5079L4.93514 13.339C4.89807 13.3329 4.86253 13.3252 4.82546 13.3191C4.86099 13.1226 4.90579 12.9245 4.9475 12.7265L4.95677 12.6835C5.01084 12.4578 5.06028 12.2306 5.12053 12.005L5.01239 11.9773C5.05874 11.7931 5.10663 11.6089 5.15916 11.4262C5.21632 11.2144 5.27966 11.004 5.343 10.7937L5.35536 10.7523C5.38471 10.654 5.41561 10.5558 5.44806 10.4591L5.34146 10.4253L5.49286 9.96474L5.65507 9.5088C5.67052 9.46735 5.68443 9.4259 5.69988 9.38445L5.80957 9.09737C5.77558 9.08356 5.74004 9.07128 5.70606 9.05746C5.82502 8.73968 5.95942 8.43111 6.09074 8.12101C6.2236 7.82779 6.35492 7.53458 6.50169 7.24904C6.57739 7.09092 6.65772 6.93586 6.74269 6.78388L6.92499 6.44922L7.11965 6.12376C7.24479 5.9027 7.38847 5.69699 7.52442 5.48667C7.74225 5.16889 7.96936 4.85725 8.215 4.56711L8.29997 4.63773C8.42047 4.48268 8.55488 4.34298 8.6862 4.20174L8.84069 4.03441L9.00445 3.88089C9.08942 3.82716 9.16512 3.75501 9.23928 3.67671C9.31343 3.59842 9.39377 3.52627 9.47101 3.45258C9.5498 3.38043 9.63014 3.31288 9.7182 3.26683C9.80781 3.22691 9.90359 3.20542 10.004 3.21463C10.0581 3.20081 10.106 3.16704 10.1523 3.12866C10.1755 3.1087 10.1987 3.08721 10.2218 3.06572C10.2466 3.0473 10.2713 3.02888 10.2945 3.01199C10.3933 2.94291 10.4968 2.89685 10.6173 2.97668C10.7332 2.98129 10.8259 2.72184 10.9649 2.9337L11.0978 2.87689L11.1318 2.86308L11.1982 2.83391C11.277 2.9337 11.3496 2.92602 11.4207 2.89071C11.4918 2.8554 11.5659 2.79553 11.637 2.80935C11.671 2.77711 11.705 2.76329 11.7374 2.76022C11.7714 2.76022 11.8038 2.77404 11.8363 2.78786C11.9012 2.81549 11.963 2.85387 12.0309 2.83238C12.1422 2.81088 12.2519 2.78171 12.3677 2.78018C12.4233 2.63741 12.4882 2.49924 12.5423 2.3227C12.6566 2.1262 12.774 1.60578 12.6474 1.09457C12.6412 0.910352 12.6335 0.726132 12.6273 0.541912C12.5114 0.584897 12.5562 0.227204 12.4542 0.224134C12.4311 0.0706175 12.3276 0.107461 12.275 0.0168868C12.1607 -0.00921098 12.017 0.0399142 11.8857 0.0644768C11.7529 0.0967152 11.6323 0.113602 11.5427 0C11.3852 0.0491252 11.2322 0.0828988 11.0824 0.107461C10.9356 0.141235 10.7919 0.171938 10.6467 0.196501C10.503 0.225669 10.3532 0.241021 10.2126 0.28247C10.072 0.323919 9.92831 0.371509 9.78618 0.431381C9.66104 0.217993 9.505 0.498928 9.37832 0.501998C9.09714 0.65705 8.80825 0.804425 8.55333 0.988645L8.49154 0.896535L8.21036 1.0869C8.13003 1.13909 8.05896 1.19589 7.98635 1.25423L7.68355 1.49678L7.50125 1.64569L7.33131 1.80382L6.99452 2.12006C6.68244 2.44091 6.37809 2.7679 6.10928 3.11024C5.93625 3.31135 5.79103 3.5232 5.63654 3.73198C5.48822 3.92541 5.36309 4.12652 5.23022 4.32609C5.16534 4.42587 5.09582 4.52412 5.03711 4.62698L5.01085 4.66996L4.70032 5.19192L4.6756 5.23644C4.78374 5.58185 4.36198 5.88121 4.28474 6.21434C4.18895 6.40623 4.09317 6.59813 4.00665 6.7931C3.90623 7.01723 3.80118 7.23983 3.70848 7.46703L3.55708 7.82779L3.53854 7.87231L3.50301 7.96289C3.39332 8.2515 3.27745 8.53858 3.17858 8.82872L3.14613 8.92083C3.09206 9.07281 3.03799 9.22633 2.98855 9.37984C3.02408 9.39059 3.05807 9.40287 3.09361 9.41515L2.94375 9.87417L2.88813 10.0584L2.75063 10.5205C2.68729 10.7538 2.61777 10.9841 2.56061 11.219L2.66875 11.2466L2.64558 11.3402L2.63322 11.3863C2.57606 11.6028 2.52662 11.8223 2.47564 12.0418L2.4432 12.1831L2.42311 12.2782L2.33351 12.705L2.4432 12.7265L2.38912 13.012C2.43238 13.1364 2.19138 13.3406 2.43238 13.4158L2.43856 13.4112Z" fill="url(#paint2_linear_8_4461)"/>
<defs>
<linearGradient id="paint0_linear_8_4461" x1="1.45697e-06" y1="44" x2="43.3967" y2="-1.52827" gradientUnits="userSpaceOnUse">
<stop stop-color="#7E41FF"/>
<stop offset="1" stop-color="#4100CC"/>
</linearGradient>
<linearGradient id="paint1_linear_8_4461" x1="1.45697e-06" y1="44" x2="43.3967" y2="-1.52827" gradientUnits="userSpaceOnUse">
<stop stop-color="#7E41FF"/>
<stop offset="1" stop-color="#4100CC"/>
</linearGradient>
<linearGradient id="paint2_linear_8_4461" x1="1.45697e-06" y1="44" x2="43.3967" y2="-1.52827" gradientUnits="userSpaceOnUse">
<stop stop-color="#7E41FF"/>
<stop offset="1" stop-color="#4100CC"/>
</linearGradient>
</defs>
</svg>
