<svg width="375" height="285" viewBox="0 0 375 285" fill="none" xmlns="http://www.w3.org/2000/svg">
<mask id="mask0_41_16237" style="mask-type:alpha" maskUnits="userSpaceOnUse" x="0" y="0" width="375" height="285">
<rect width="375" height="285" fill="#D9D9D9"/>
</mask>
<g mask="url(#mask0_41_16237)">
<path d="M-69.3506 290C-50.4006 286.403 75.8254 275.007 86.5014 270.01C101.678 262.906 120.204 249.594 124.937 244.42C128.896 240.094 128.04 241.255 132.194 237.114L98.0062 137.454C96.8911 133.532 95.5334 128.724 94.6912 127.478C92.5182 124.273 90.5912 120.861 87.9938 117.972C86.9394 116.798 86.5014 115.617 86.5621 114.139C86.6261 112.593 86.5149 111.007 86.8147 109.509C87.2729 107.224 88.3071 96.6416 88.3071 96.6416C88.3947 90.9555 85.1033 72.527 78.5306 71.1468C75.8085 70.5732 74.1443 73.3133 72.8709 75.7666C69.9871 81.3211 68.1982 87.2705 66.5711 93.2704C65.2606 98.1062 64.1522 102.999 62.7373 107.805C61.5076 111.979 61.6087 116.072 62.5419 120.257C63.849 126.112 65.867 131.754 67.4605 137.524C68.8653 142.61 69.8187 147.766 70.762 152.933C71.5806 157.421 72.4633 161.906 73.0562 166.428C74.0534 174.054 74.7103 181.718 73.6929 189.401C73.3493 191.997 71.8703 194.224 71.1696 196.768C66.8608 212.409 -50.2944 206.358 -64.026 214.389L-80 244.42L-69.3506 290Z" fill="#6100FF"/>
<path d="M196.307 139.752L218.151 197.865C219.603 201.668 219.98 206.278 215.186 208.738C202.681 215.153 189.849 221.821 176.636 228.658C167.567 233.352 158.33 238.157 148.89 243.02C146.367 244.319 143.884 245.055 141.192 243.27C139.834 242.372 139.305 240.952 138.837 239.581L77.9411 56.6297C77.3718 54.5003 76.1859 52.5262 76.1623 50.2754C76.132 47.137 77.5369 45.1899 80.5048 44.3328C91.5076 41.1607 102.268 38.046 112.829 35.0595C124.556 31.7457 135.906 28.2294 147.168 25.2598C150.608 24.352 153.488 25.8368 154.866 29.5016L179.813 96.6891" stroke="#6100FF" stroke-linecap="round" stroke-linejoin="round"/>
<path d="M191.166 144.129L209.352 192.824C206.441 194.288 203.52 195.783 200.566 197.244C186.379 204.27 171.748 211.532 156.618 218.966C152.646 220.917 148.712 223.09 144.561 224.75C142.378 225.621 142.355 225.786 141.425 223.218C139.818 218.774 138.187 214.353 136.776 209.859C132.312 195.679 127.42 181.91 122.808 168.213C118.045 154.06 113.217 140.14 108.672 126.325C102.73 108.261 96.4871 90.6455 90.9217 73.1383C89.6179 69.0382 88.0413 65.0326 86.879 60.9156C86.2558 58.6985 86.2221 58.5467 88.2502 57.9528C98.9262 54.8245 109.326 51.5951 119.544 48.531C129.088 45.6694 138.416 42.7639 147.59 39.9799C148.045 39.8415 148.573 39.6964 149.011 39.6323C151.629 39.2645 152.145 39.6525 153.199 42.4635L172.055 92.9469" stroke="#6100FF" stroke-linecap="round" stroke-linejoin="round"/>
<path d="M81.6569 73.8196C79.8107 75.7262 80.2689 78.2976 79.8107 80.5755C79.0729 84.2605 78.4194 87.9556 77.2301 91.5259C75.9129 95.4843 73.1908 96.5709 69.448 94.6912C68.6462 94.2897 67.8714 93.8004 66.9213 93.8476C66.9213 93.8476 65.6917 79.3809 74.2857 67.6138L81.6569 73.8196Z" fill="#00FFC2"/>
<path d="M87.1312 116.197C85.3592 117.189 84.0251 118.843 82.0779 119.572" stroke="white" stroke-linecap="round" stroke-linejoin="round"/>
<path d="M87.4751 104.73L134.084 242.713C135.347 246.452 139.683 248.132 143.129 246.219L148.887 243.023" stroke="#6100FF" stroke-linecap="round" stroke-linejoin="round"/>
<path d="M77.365 44.8149L73.0696 51.6754C71.6244 53.9802 71.2942 56.8149 72.1634 59.3964L75.7378 69.0679" stroke="#6100FF" stroke-linecap="round" stroke-linejoin="round"/>
<path d="M71.6851 57.4053L76.1623 51.8677" stroke="#6100FF" stroke-linecap="round" stroke-linejoin="round"/>
<path d="M72.7664 61.1851L77.941 56.6294" stroke="#6100FF" stroke-linecap="round" stroke-linejoin="round"/>
<path d="M74.2589 65.6026L79.4436 61.1482" stroke="#6100FF" stroke-linecap="round" stroke-linejoin="round"/>
<path d="M76.1625 69.193L80.8621 65.4033" stroke="#6100FF" stroke-linecap="round" stroke-linejoin="round"/>
<path d="M88.0042 99.9485L91.2417 96.5874" stroke="#6100FF" stroke-linecap="round" stroke-linejoin="round"/>
<path d="M87.4751 104.731L92.7845 101.225" stroke="#6100FF" stroke-linecap="round" stroke-linejoin="round"/>
<path d="M88.6305 108.149L94.115 105.22" stroke="#6100FF" stroke-linecap="round" stroke-linejoin="round"/>
<path d="M90.1296 112.587L95.5468 109.529" stroke="#6100FF" stroke-linecap="round" stroke-linejoin="round"/>
<path d="M91.3728 116.265L97.0864 114.149" stroke="#6100FF" stroke-linecap="round" stroke-linejoin="round"/>
<path d="M92.8384 120.608L98.3297 117.881" stroke="#6100FF" stroke-linecap="round" stroke-linejoin="round"/>
<path d="M94.2295 124.725L99.8488 122.454" stroke="#6100FF" stroke-linecap="round" stroke-linejoin="round"/>
<path d="M95.584 128.734L101.355 126.972" stroke="#6100FF" stroke-linecap="round" stroke-linejoin="round"/>
<path d="M97.0393 132.425L102.649 130.866" stroke="#6100FF" stroke-linecap="round" stroke-linejoin="round"/>
<path d="M103.915 134.666L98.1545 136.347" stroke="#6100FF" stroke-linecap="round" stroke-linejoin="round"/>
<path d="M99.8457 140.464L105.431 139.222" stroke="#6100FF" stroke-linecap="round" stroke-linejoin="round"/>
<path d="M101.035 144.871L106.375 144.445" stroke="#6100FF" stroke-linecap="round" stroke-linejoin="round"/>
<path d="M102.295 148.604L108.332 147.355" stroke="#6100FF" stroke-linecap="round" stroke-linejoin="round"/>
<path d="M103.706 152.777L109.474 151.37" stroke="#6100FF" stroke-linecap="round" stroke-linejoin="round"/>
<path d="M105.037 156.716L110.909 155.68" stroke="#6100FF" stroke-linecap="round" stroke-linejoin="round"/>
<path d="M106.59 160.539L112.25 160.191" stroke="#6100FF" stroke-linecap="round" stroke-linejoin="round"/>
<path d="M107.971 165.408L113.692 164.035" stroke="#6100FF" stroke-linecap="round" stroke-linejoin="round"/>
<path d="M109.42 168.496L115.012 168.152" stroke="#6100FF" stroke-linecap="round" stroke-linejoin="round"/>
<path d="M110.832 172.478L116.161 171.459" stroke="#6100FF" stroke-linecap="round" stroke-linejoin="round"/>
<path d="M111.778 176.673L117.579 175.718" stroke="#6100FF" stroke-linecap="round" stroke-linejoin="round"/>
<path d="M113.497 179.919L118.789 179.349" stroke="#6100FF" stroke-linecap="round" stroke-linejoin="round"/>
<path d="M114.403 184.447L121.231 184.069" stroke="#6100FF" stroke-linecap="round" stroke-linejoin="round"/>
<path d="M115.656 188.16L121.484 187.448" stroke="#6100FF" stroke-linecap="round" stroke-linejoin="round"/>
<path d="M116.993 192.122L122.936 191.808" stroke="#6100FF" stroke-linecap="round" stroke-linejoin="round"/>
<path d="M118.57 195.493L124.058 195.182" stroke="#6100FF" stroke-linecap="round" stroke-linejoin="round"/>
<path d="M119.5 199.532L125.031 199.819" stroke="#6100FF" stroke-linecap="round" stroke-linejoin="round"/>
<path d="M121.312 203.797L126.908 203.747" stroke="#6100FF" stroke-linecap="round" stroke-linejoin="round"/>
<path d="M122.545 208.552L128.36 208.11" stroke="#6100FF" stroke-linecap="round" stroke-linejoin="round"/>
<path d="M123.718 212.024L129.697 212.797" stroke="#6100FF" stroke-linecap="round" stroke-linejoin="round"/>
<path d="M125.453 217.161L131.21 216.675" stroke="#6100FF" stroke-linecap="round" stroke-linejoin="round"/>
<path d="M126.706 220.873L132.628 220.93" stroke="#6100FF" stroke-linecap="round" stroke-linejoin="round"/>
<path d="M128.212 225.327L133.838 224.565" stroke="#6100FF" stroke-linecap="round" stroke-linejoin="round"/>
<path d="M129.377 228.779L135.05 229.407" stroke="#6100FF" stroke-linecap="round" stroke-linejoin="round"/>
<path d="M130.722 232.755L136.752 233.318" stroke="#6100FF" stroke-linecap="round" stroke-linejoin="round"/>
<path d="M132.193 237.114L137.83 236.558" stroke="#6100FF" stroke-linecap="round" stroke-linejoin="round"/>
<path d="M133.737 241.68L138.837 241.036" stroke="#6100FF" stroke-linecap="round" stroke-linejoin="round"/>
<path d="M135.01 245.456L142.998 244.12" stroke="#6100FF" stroke-linecap="round" stroke-linejoin="round"/>
<path d="M156.106 96.5874L200.815 94.9608L224.225 69.6348L233.675 60.4863C241.534 60.7833 246.507 63.8609 248.343 69.9621C248.343 69.9621 239.705 83.2714 234.173 90.6211C228.642 97.9743 218.013 106.93 213.559 110.578C209.106 114.226 188.077 118.606 177.886 121.816C177.886 121.816 207.62 121.984 215.645 117.216C223.666 112.444 252.291 98.3793 252.291 98.3793C252.291 98.3793 256.196 107.248 255.222 114.847C255.222 114.847 227.557 131.976 216.224 137.791C204.888 143.605 192.076 142.033 192.076 142.033C186.019 140.575 164.195 144.658 164.195 144.658" stroke="#6100FF" stroke-miterlimit="10"/>
<path d="M233.675 60.4898C233.675 60.4898 235.548 52.7587 238.6 52.3942L240.776 49.6204C245.041 49.8397 254.05 53.2615 256.92 54.8509C261.441 57.3549 268.745 60.2401 270.662 63.3751C272.579 66.51 274.462 69.9656 271.608 71.9127C270.342 72.7766 270.419 72.2873 265.042 70.6169C259.666 68.9465 252.352 67.6169 252.352 67.6169H247.406" stroke="#6100FF" stroke-miterlimit="10"/>
<path d="M253.093 100.462C253.093 100.462 262.125 96.0073 264.564 95.2616C267.138 94.4753 267.606 92.3392 269.739 96.1558C270.416 97.3673 271.336 100.421 273.653 103.242C279.067 109.833 284.083 120.797 284.04 123.486C283.972 127.414 282.716 127.502 280.078 126.837C277.443 126.173 275.126 122.039 270.77 118.738C266.417 115.435 258.689 112.819 256.374 113.177" stroke="#6100FF" stroke-miterlimit="10"/>
<path d="M265.042 70.6171C265.042 70.6171 265.999 66.0581 270.143 65.0188C270.143 65.0188 268.243 62.7072 263.752 60.4901C259.261 58.273 253.905 55.1549 251.142 54.6386C248.38 54.1189 241.986 53.0796 241.986 53.0796L238.6 52.3945" stroke="#6100FF" stroke-miterlimit="10"/>
<path d="M200.814 94.9612C200.814 94.9612 199.106 96.5877 196.725 100.32" stroke="#6100FF" stroke-miterlimit="10"/>
<path d="M264.564 95.2612C264.564 95.2612 269.968 103.087 272.043 105.857C274.118 108.628 280.681 120.739 280.681 120.739C280.681 120.739 276.298 122.015 277.106 124.839" stroke="#6100FF" stroke-miterlimit="10"/>
<path d="M260.211 113.737L261.006 108.645" stroke="#6100FF" stroke-miterlimit="10"/>
<path d="M262.512 114.476L263.307 109.722" stroke="#6100FF" stroke-miterlimit="10"/>
<path d="M264.564 115.644L265.767 110.552" stroke="#6100FF" stroke-miterlimit="10"/>
<path d="M267.053 116.447L269.001 113.099" stroke="#6100FF" stroke-miterlimit="10"/>
<path d="M269.51 117.858L271.831 115.644" stroke="#6100FF" stroke-miterlimit="10"/>
<path d="M272.141 119.859L274.442 117.412" stroke="#6100FF" stroke-miterlimit="10"/>
<path d="M249.721 67.6138L248.262 63.1931" stroke="#6100FF" stroke-miterlimit="10"/>
<path d="M252.348 67.6138L251.102 63.1931" stroke="#6100FF" stroke-miterlimit="10"/>
<path d="M254.37 68.0053V63.5779" stroke="#6100FF" stroke-miterlimit="10"/>
<path d="M255.984 68.339C255.984 68.339 256.63 65.1129 256.553 64.4211" stroke="#6100FF" stroke-miterlimit="10"/>
<path d="M258.308 68.8521L259.009 65.4033" stroke="#6100FF" stroke-miterlimit="10"/>
<path d="M260.211 69.301L261.006 65.7915" stroke="#6100FF" stroke-miterlimit="10"/>
<path d="M216.22 137.791C216.22 137.791 219.353 133.89 219.872 130.084" stroke="#6100FF" stroke-miterlimit="10"/>
<path d="M134.764 95.3456L157.066 95.2612C157.086 121.083 167.25 134.568 165.148 143.332L163.767 149.693C162.382 150.985 159.984 151.208 155.934 149.693L150.099 147.979C150.099 147.979 135.846 127.485 135.01 116.75C134.175 106.016 134.764 95.3456 134.764 95.3456Z" fill="#6100FF" stroke="#6100FF" stroke-miterlimit="10"/>
<path d="M172.479 142.252C172.617 150.57 170.552 156.618 166.341 158.177C158.562 161.058 146.404 147.543 139.184 127.991C131.965 108.439 132.419 90.2501 140.198 87.3682C144.648 85.718 150.534 89.4368 156.106 96.5841" stroke="#6100FF" stroke-miterlimit="10"/>
<path d="M173.415 147.699C173.415 147.699 179.678 142.863 193.134 149.73" stroke="#6100FF" stroke-miterlimit="10"/>
<path d="M173.473 151.158C173.473 151.158 177.93 147.702 188.427 153.81" stroke="#6100FF" stroke-miterlimit="10"/>
<path d="M170.39 70.8023C173.597 69.493 177.202 66.0003 174.783 58.907C172.364 51.8137 162.888 50.8418 162.888 50.8418L170.39 70.8023Z" fill="#6100FF"/>
<path d="M190.078 95.6221C189.478 86.1801 176.474 86.9867 176.474 86.9867L179.813 96.6885L190.078 95.6221Z" fill="#6100FF"/>
<path d="M200.814 151.741C200.814 151.741 208.967 147.844 205.868 141.297L196.725 142.222L200.814 151.738V151.741Z" fill="#6100FF"/>
<path d="M165.434 123.591C165.434 123.591 174.854 123.007 183.273 120.257" stroke="#6100FF" stroke-miterlimit="10"/>
</g>
</svg>
