<svg preserveAspectRatio="none" width="100%" height="100%" overflow="visible" style="display: block;" viewBox="0 0 43.4949 43.4394" fill="none" xmlns="http://www.w3.org/2000/svg">
<g id="Icon Container">
<path id="Vector" d="M24.3689 18.9617C26.697 10.0896 34.1024 2.74544 42.9836 0.500004C43.2655 10.7506 38.2777 21.2769 28.4613 25.3293" stroke="var(--stroke-0, #6100FF)" stroke-linecap="round" stroke-linejoin="round"/>
<path id="Vector_2" d="M27.7284 11.0396C22.326 8.03016 17.2653 12.717 15.3252 17.6795C17.6964 14.5605 22.8766 13.7201 24.6276 17.8523" stroke="var(--stroke-0, #6100FF)" stroke-linecap="round" stroke-linejoin="round"/>
<path id="Vector_3" d="M37.1534 20.0811C37.8565 24.6417 36.5034 29.4813 33.5419 33.0155C34.8386 29.9165 34.1289 25.2894 32.7161 23.5024" stroke="var(--stroke-0, #6100FF)" stroke-linecap="round" stroke-linejoin="round"/>
<path id="Vector_4" d="M32.0562 14.577C33.5718 15.6832 40.7285 7.35911 38.6724 6.23971C36.6162 5.12032 30.5407 13.4709 32.0562 14.577Z" stroke="var(--stroke-0, #6100FF)" stroke-linecap="round" stroke-linejoin="round"/>
<path id="Vector_5" d="M23.8085 19.3041C16.0158 19.8339 18.567 25.0255 15.0053 28.3339C15.9571 28.1711 18.6611 28.8122 19.5001 28.3339C19.5665 30.6491 16.8624 32.1142 15.0053 33.496C22.0001 33.496 26.5001 29.9979 28.0866 25.5123" stroke="var(--stroke-0, #6100FF)" stroke-linecap="round" stroke-linejoin="round"/>
<path id="Vector_6" d="M24.2429 19.334C26.6605 20.1677 28.2258 22.9546 27.6786 25.4558C28.0169 25.3661 28.3552 25.2797 28.6934 25.1901" stroke="var(--stroke-0, #6100FF)" stroke-linecap="round" stroke-linejoin="round"/>
<g id="Icon">
<path id="Line 35" d="M4.50014 32.998C7.50014 32.998 10.1462 32.1753 12.5001 29.498" stroke="var(--stroke-0, #6100FF)" stroke-linecap="round"/>
<path id="Line 36" d="M0.500136 41.498C8.00014 38.998 13.0001 34.498 13.0001 34.498" stroke="var(--stroke-0, #6100FF)" stroke-linecap="round"/>
</g>
</g>
</svg>
