<svg width="323" height="269" viewBox="0 0 323 269" fill="none" xmlns="http://www.w3.org/2000/svg">
<path d="M71.12 213.983L20.998 230.487C15.4007 232.327 10.4987 229.147 10.134 223.355L5.79181 155.711C5.41866 149.842 9.77783 144.084 15.4515 142.863L66.2774 131.939C71.1709 130.888 75.3435 134.39 75.6573 139.742L79.2617 201.525C79.567 206.817 75.9541 212.38 71.12 213.975V213.983Z" stroke="#6100FF" stroke-linecap="round" stroke-linejoin="round"/>
<path d="M71.1203 175.87C71.0779 179.517 70.2468 183.952 67.8976 188.006C66.8544 189.813 65.5484 191.39 63.7844 192.535C60.7058 194.545 57.1269 194.392 54.2094 192.145C52.0214 190.466 50.5287 188.252 49.528 185.733C46.6869 178.558 46.6699 171.333 49.511 164.158C50.6135 161.368 52.2673 158.934 54.837 157.255C57.8562 155.287 61.4691 155.465 64.3271 157.67C66.5322 159.366 67.9909 161.605 69.0425 164.124C70.4927 167.61 71.1118 170.96 71.1203 175.862V175.87ZM64.166 174.734C64.1321 174.36 64.1066 173.792 64.0303 173.241C63.7844 171.46 63.2161 169.806 61.9779 168.449C60.4259 166.753 58.2463 166.719 56.6519 168.373C56.3381 168.695 56.0583 169.068 55.8208 169.45C54.396 171.748 54.1755 174.267 54.5656 176.871C54.8285 178.618 55.4307 180.221 56.6859 181.51C57.8138 182.672 59.3234 183.002 60.6719 182.366C61.486 181.985 62.0967 181.366 62.5885 180.619C63.7335 178.889 64.1066 176.947 64.166 174.717V174.734Z" stroke="#6100FF" stroke-linecap="round" stroke-linejoin="round"/>
<path d="M69.0425 164.132C67.9909 161.613 66.5237 159.375 64.3271 157.678C61.4691 155.473 57.8562 155.295 54.837 157.263C52.2673 158.942 50.6135 161.376 49.511 164.166C46.6699 171.35 46.6869 178.567 49.528 185.742C50.5287 188.26 52.0214 190.474 54.2094 192.153C57.1353 194.401 60.7058 194.553 63.7844 192.543C65.5484 191.39 66.8544 189.812 67.8976 188.014C70.2383 183.961 71.0694 179.525 71.1203 175.878C71.1203 170.976 70.5012 167.626 69.0425 164.141V164.132ZM62.5885 180.636C62.0967 181.374 61.486 182.002 60.6719 182.383C59.3149 183.019 57.8053 182.688 56.6859 181.527C55.4392 180.229 54.8285 178.626 54.5656 176.888C54.1755 174.284 54.396 171.765 55.8208 169.467C56.0583 169.085 56.3381 168.712 56.6519 168.39C58.2463 166.727 60.4259 166.761 61.9779 168.466C63.2161 169.823 63.7844 171.477 64.0303 173.258C64.1066 173.817 64.1321 174.377 64.166 174.75C64.1066 176.972 63.7335 178.923 62.5885 180.653V180.636Z" stroke="#6100FF" stroke-linecap="round" stroke-linejoin="round"/>
<path d="M59.2813 155.922C59.1711 155.905 54.0232 155.897 53.9638 155.897C45.5084 155.897 37.0529 155.88 28.5975 155.922C27.6561 155.922 26.6723 156.185 25.7988 156.533C23.2885 157.542 21.5923 159.484 20.2608 161.757C18.0558 165.506 17.055 169.619 17.0296 173.927C16.9617 185.317 17.0041 196.698 16.9956 208.088C16.9956 208.139 16.9956 208.198 16.9956 208.249C17.055 208.724 17.2501 209.114 17.7844 209.123C18.5646 209.131 19.3788 209.225 20.1166 209.038C21.6856 208.656 23.2376 208.182 24.7641 207.647C27.2066 206.791 29.6915 206.384 32.2782 206.587C34.2627 206.74 37.0953 207.486 38.8933 208.241C41.0729 209.165 43.8207 209.861 46.2038 209.988C47.2809 210.047 47.5438 209.793 47.5438 208.724C47.5438 206.485 47.0264 204.246 47.0264 202.007C47.0264 193.204 47.3317 181.882 47.3742 173.079" stroke="#6100FF" stroke-linecap="round" stroke-linejoin="round"/>
<path d="M48.6282 60.716C47.4664 61.0806 46.3299 61.5471 45.202 62.0814C42.7001 63.2687 40.6647 65.1684 38.8922 67.3989C37.4928 69.1544 36.331 71.105 35.5507 73.2422C34.2701 76.7448 33.6001 80.3407 33.634 83.996C33.668 87.5919 34.2531 91.0266 35.3981 94.3342C36.3734 97.1498 37.7388 99.6602 39.8081 101.713C41.1735 103.069 42.6916 104.223 44.4048 105.029C47.3561 106.428 50.4855 107.072 53.8185 106.606C55.9218 106.309 57.9402 105.665 59.9502 104.944C61.9263 104.24 63.7242 103.188 65.5052 102.06C67.0148 101.11 68.3208 99.9315 69.4149 98.5237C71.1789 96.2593 72.7224 93.8508 73.6977 91.0775C74.6645 88.3297 75.0038 85.5225 74.7578 82.6645C74.5797 80.5782 74.0963 78.5767 73.4263 76.6346C71.8489 72.0719 68.9145 67.0003 65.6324 63.6419C64.3688 62.3528 62.8931 61.4962 61.2563 60.8771C59.2378 60.1138 57.1939 59.5286 54.955 59.6728C52.8517 59.8085 50.7569 59.8764 48.6961 60.682" stroke="#6100FF" stroke-linecap="round" stroke-linejoin="round"/>
<path d="M48.9922 69.9785C50.1286 74.5752 51.8248 78.9258 53.4192 83.3274C53.5464 83.6836 54.6235 86.4314 54.5302 86.847" stroke="#6100FF" stroke-linecap="round" stroke-linejoin="round"/>
<path d="M64.7673 78.6021C62.0958 80.1116 59.3565 81.4601 56.6087 82.7746C54.8447 83.6142 52.9534 84.0807 51.2148 85.0306" stroke="#6100FF" stroke-linecap="round" stroke-linejoin="round"/>
<path d="M67.7695 77.3481C68.5667 76.941 69.4912 76.8901 70.1951 76.2371" stroke="#6100FF" stroke-linecap="round" stroke-linejoin="round"/>
<path d="M35.8223 92.4938C36.6195 92.0867 37.5439 92.0358 38.2478 91.3828" stroke="#6100FF" stroke-linecap="round" stroke-linejoin="round"/>
<path d="M61.5198 103.358C61.1212 102.561 61.0703 101.586 60.4512 100.899" stroke="#6100FF" stroke-linecap="round" stroke-linejoin="round"/>
<path d="M31.2686 139.528C19.0731 112.542 8.81974 84.64 0.5 55.8135C39.0456 37.5372 77.5827 19.2609 116.128 0.984619" stroke="#6100FF" stroke-linecap="round" stroke-linejoin="round"/>
<path d="M134.421 213.991C118.384 221.59 102.355 229.197 86.3173 236.796C82.238 230.885 78.269 224.923 74.4102 218.919" stroke="#6100FF" stroke-linecap="round" stroke-linejoin="round"/>
<path d="M76.2422 139.53C85.5457 135.12 81.2289 137.164 90.5325 132.754C95.1885 130.549 100.803 132.525 103.152 137.13C110.013 150.292 117.222 163.183 124.846 175.913C127.543 180.332 126.025 185.666 121.369 187.88C112.065 192.29 102.762 196.7 93.4584 201.118C88.8024 203.323 82.7809 201.568 80.0755 197.149" stroke="#6100FF" stroke-linecap="round" stroke-linejoin="round" stroke-dasharray="1 3"/>
<path d="M156.837 104.46L119.402 120.268" stroke="#6100FF" stroke-linecap="round" stroke-linejoin="round"/>
<path d="M162.087 116.054L124.652 131.854" stroke="#6100FF" stroke-linecap="round" stroke-linejoin="round"/>
<path d="M168.429 127.376L130.994 143.185" stroke="#6100FF" stroke-linecap="round" stroke-linejoin="round"/>
<path d="M71.12 213.983L20.998 230.487C15.4007 232.327 10.4987 229.147 10.134 223.355L5.79181 155.711C5.41866 149.842 9.77783 144.084 15.4515 142.863L66.2774 131.939C71.1709 130.888 75.3435 134.39 75.6573 139.742L79.2617 201.525C79.567 206.817 75.9541 212.38 71.12 213.975V213.983Z" stroke="#6100FF" stroke-linecap="round" stroke-linejoin="round"/>
<path d="M71.1203 175.87C71.0779 179.517 70.2468 183.952 67.8976 188.006C66.8544 189.813 65.5484 191.39 63.7844 192.535C60.7058 194.545 57.1269 194.392 54.2094 192.145C52.0214 190.466 50.5287 188.252 49.528 185.733C46.6869 178.558 46.6699 171.333 49.511 164.158C50.6135 161.368 52.2673 158.934 54.837 157.255C57.8562 155.287 61.4691 155.465 64.3271 157.67C66.5322 159.366 67.9909 161.605 69.0425 164.124C70.4927 167.61 71.1118 170.96 71.1203 175.862V175.87ZM64.166 174.734C64.1321 174.36 64.1066 173.792 64.0303 173.241C63.7844 171.46 63.2161 169.806 61.9779 168.449C60.4259 166.753 58.2463 166.719 56.6519 168.373C56.3381 168.695 56.0583 169.068 55.8208 169.45C54.396 171.748 54.1755 174.267 54.5656 176.871C54.8285 178.618 55.4307 180.221 56.6859 181.51C57.8138 182.672 59.3234 183.002 60.6719 182.366C61.486 181.985 62.0967 181.366 62.5885 180.619C63.7335 178.889 64.1066 176.947 64.166 174.717V174.734Z" stroke="#6100FF" stroke-linecap="round" stroke-linejoin="round"/>
<path d="M69.0425 164.132C67.9909 161.613 66.5237 159.375 64.3271 157.678C61.4691 155.473 57.8562 155.295 54.837 157.263C52.2673 158.942 50.6135 161.376 49.511 164.166C46.6699 171.35 46.6869 178.567 49.528 185.742C50.5287 188.26 52.0214 190.474 54.2094 192.153C57.1353 194.401 60.7058 194.553 63.7844 192.543C65.5484 191.39 66.8544 189.812 67.8976 188.014C70.2383 183.961 71.0694 179.525 71.1203 175.878C71.1203 170.976 70.5012 167.626 69.0425 164.141V164.132ZM62.5885 180.636C62.0967 181.374 61.486 182.002 60.6719 182.383C59.3149 183.019 57.8053 182.688 56.6859 181.527C55.4392 180.229 54.8285 178.626 54.5656 176.888C54.1755 174.284 54.396 171.765 55.8208 169.467C56.0583 169.085 56.3381 168.712 56.6519 168.39C58.2463 166.727 60.4259 166.761 61.9779 168.466C63.2161 169.823 63.7844 171.477 64.0303 173.258C64.1066 173.817 64.1321 174.377 64.166 174.75C64.1066 176.972 63.7335 178.923 62.5885 180.653V180.636Z" stroke="#6100FF" stroke-linecap="round" stroke-linejoin="round"/>
<path d="M59.2813 155.922C59.1711 155.905 54.0232 155.897 53.9638 155.897C45.5084 155.897 37.0529 155.88 28.5975 155.922C27.6561 155.922 26.6723 156.185 25.7988 156.533C23.2885 157.542 21.5923 159.484 20.2608 161.757C18.0558 165.506 17.055 169.619 17.0296 173.927C16.9617 185.317 17.0041 196.698 16.9956 208.088C16.9956 208.139 16.9956 208.198 16.9956 208.249C17.055 208.724 17.2501 209.114 17.7844 209.123C18.5646 209.131 19.3788 209.225 20.1166 209.038C21.6856 208.656 23.2376 208.182 24.7641 207.647C27.2066 206.791 29.6915 206.384 32.2782 206.587C34.2627 206.74 37.0953 207.486 38.8933 208.241C41.0729 209.165 43.8207 209.861 46.2038 209.988C47.2809 210.047 47.5438 209.793 47.5438 208.724C47.5438 206.485 47.0264 204.246 47.0264 202.007C47.0264 193.204 47.3317 181.882 47.3742 173.079" stroke="#6100FF" stroke-linecap="round" stroke-linejoin="round"/>
<path d="M48.6282 60.716C47.4664 61.0806 46.3299 61.5471 45.202 62.0814C42.7001 63.2687 40.6647 65.1684 38.8922 67.3989C37.4928 69.1544 36.331 71.105 35.5507 73.2422C34.2701 76.7448 33.6001 80.3407 33.634 83.996C33.668 87.5919 34.2531 91.0266 35.3981 94.3342C36.3734 97.1498 37.7388 99.6602 39.8081 101.713C41.1735 103.069 42.6916 104.223 44.4048 105.029C47.3561 106.428 50.4855 107.072 53.8185 106.606C55.9218 106.309 57.9402 105.665 59.9502 104.944C61.9263 104.24 63.7242 103.188 65.5052 102.06C67.0148 101.11 68.3208 99.9315 69.4149 98.5237C71.1789 96.2593 72.7224 93.8508 73.6977 91.0775C74.6645 88.3297 75.0038 85.5225 74.7578 82.6645C74.5797 80.5782 74.0963 78.5767 73.4263 76.6346C71.8489 72.0719 68.9145 67.0003 65.6324 63.6419C64.3688 62.3528 62.8931 61.4962 61.2563 60.8771C59.2378 60.1138 57.1939 59.5286 54.955 59.6728C52.8517 59.8085 50.7569 59.8764 48.6961 60.682" stroke="#6100FF" stroke-linecap="round" stroke-linejoin="round"/>
<path d="M48.9922 69.9785C50.1286 74.5752 51.8248 78.9258 53.4192 83.3274C53.5464 83.6836 54.6235 86.4314 54.5302 86.847" stroke="#6100FF" stroke-linecap="round" stroke-linejoin="round"/>
<path d="M64.7673 78.6021C62.0958 80.1116 59.3565 81.4601 56.6087 82.7746C54.8447 83.6142 52.9534 84.0807 51.2148 85.0306" stroke="#6100FF" stroke-linecap="round" stroke-linejoin="round"/>
<path d="M67.7695 77.3481C68.5667 76.941 69.4912 76.8901 70.1951 76.2371" stroke="#6100FF" stroke-linecap="round" stroke-linejoin="round"/>
<path d="M35.8223 92.4938C36.6195 92.0867 37.5439 92.0358 38.2478 91.3828" stroke="#6100FF" stroke-linecap="round" stroke-linejoin="round"/>
<path d="M61.5198 103.358C61.1212 102.561 61.0703 101.586 60.4512 100.899" stroke="#6100FF" stroke-linecap="round" stroke-linejoin="round"/>
<path d="M31.2686 139.528C19.0731 112.542 8.81974 84.64 0.5 55.8135C39.0456 37.5372 77.5827 19.2609 116.128 0.984619L124.032 14.9441" stroke="#6100FF" stroke-linecap="round" stroke-linejoin="round"/>
<path d="M71.1211 213.983C74.9799 219.996 82.2395 230.894 86.3188 236.796C102.356 229.197 118.385 221.59 134.422 213.991L178.269 192.153L217.849 172.053C217.849 172.053 191.6 145.873 177.056 121.923" stroke="#6100FF" stroke-linecap="round" stroke-linejoin="round"/>
<path d="M118.241 22.3237C108.937 26.7338 100.465 30.7876 91.1615 35.1977C86.5055 37.4027 83.9952 43.2037 85.632 48.1226C90.4491 62.1669 95.6564 75.9907 101.296 89.7213C103.298 94.4875 108.768 96.5399 113.424 94.3264L122.727 89.9163" stroke="#6100FF" stroke-linecap="round" stroke-linejoin="round" stroke-dasharray="1 3"/>
<path d="M76.2422 139.53C85.5457 135.12 81.2289 137.164 90.5325 132.754C95.1885 130.549 100.803 132.525 103.152 137.13C110.013 150.292 117.222 163.183 124.846 175.913C127.543 180.332 126.025 185.666 121.369 187.88C112.065 192.29 102.762 196.7 93.4584 201.118C88.8024 203.323 82.7809 201.568 80.0755 197.149" stroke="#6100FF" stroke-linecap="round" stroke-linejoin="round" stroke-dasharray="1 3"/>
<path d="M156.837 104.46L119.402 120.268" stroke="#6100FF" stroke-linecap="round" stroke-linejoin="round"/>
<path d="M162.087 116.054L124.652 131.854" stroke="#6100FF" stroke-linecap="round" stroke-linejoin="round"/>
<path d="M340.5 183.449C340.5 183.449 310.518 174.665 305.972 152.649C301.427 130.632 296.007 90.7043 296.007 90.7043C296.499 89.0251 292.327 71.9785 288.79 56.9504C285.254 41.9223 287.696 38.3349 278.401 32.0081C265.527 23.2559 253.154 24.6552 253.154 24.6552C249.795 17.9299 237.065 13.2908 222.097 9.10128C202.395 3.58022 194.652 3.97883 194.61 12.4851C194.61 12.4851 179.497 -0.422751 174.917 0.671282C170.338 1.76532 158.117 6.12449 169.362 19.7448C180.617 33.3651 199.512 43.7372 205.169 51.4718C210.834 59.2063 221.613 70.2569 224.777 80.3067C227.94 90.3566 226.591 103.358 222.622 110.719C218.653 118.081 217.907 125.171 208.51 124.874C199.113 124.577 197.451 128.571 191.302 111.203C188.088 102.12 186.248 98.9647 177.937 92.4853L154.801 93.2316C156.717 100.839 163.731 100.491 165.393 107.929C167.098 115.553 176.325 138.002 180.837 143.854C186.604 151.326 192.286 160.086 199.809 167.024C208.01 174.589 213.353 182.281 222.241 187.302C231.129 192.322 241.789 194.179 247.471 198.903C253.154 203.628 296.007 239.233 340.5 268.284V223.602" fill="#6100FF"/>
<path d="M178.658 0.493011C174.113 -0.736716 171.399 0.374279 171.458 3.37651C171.458 3.37651 188.555 14.9275 190.862 15.1565C190.862 15.1565 195.484 13.2313 194.594 12.485C182.848 2.57083 178.658 0.493011 178.658 0.493011Z" fill="#00FFC2"/>
<path d="M200.334 4.07293C197.484 4.07293 197.238 6.40518 197.238 6.40518L209.866 10.2555C209.866 10.2555 212.351 6.66808 214.149 7.0582C214.149 7.0582 204.243 4.06445 200.334 4.06445V4.07293Z" fill="#00FFC2"/>
<path d="M273.338 66.7973C273.338 66.7973 265.654 48.4701 260.931 39.7093C256.8 32.0511 253.137 24.6558 253.137 24.6558" stroke="white" stroke-miterlimit="10"/>
<path d="M168.429 127.376L130.994 143.185" stroke="#6100FF" stroke-linecap="round" stroke-linejoin="round"/>
<path d="M255.85 75.9728C255.307 71.5543 235.708 42.7193 230.509 37.5544C225.319 32.3896 194.584 12.4934 194.584 12.4934" stroke="white" stroke-miterlimit="10"/>
<path d="M175.198 12.4856H131.81C124.315 12.4856 118.24 18.5608 118.24 26.055V79.8323C118.24 87.3264 124.315 93.4017 131.81 93.4017H175.198C182.692 93.4017 188.767 87.3264 188.767 79.8323V26.055C188.767 18.5608 182.692 12.4856 175.198 12.4856Z" stroke="#6100FF" stroke-linecap="round" stroke-linejoin="round"/>
<path d="M175.419 43.669C175.419 55.7712 153.504 84.1313 153.504 84.1313C153.504 84.1313 131.59 55.7712 131.59 43.669C131.59 31.5668 141.402 21.7544 153.504 21.7544C165.607 21.7544 175.419 31.5668 175.419 43.669Z" stroke="#6100FF" stroke-linecap="round" stroke-linejoin="round"/>
<path d="M153.512 51.6827C157.939 51.6827 161.527 48.0945 161.527 43.6682C161.527 39.242 157.939 35.6538 153.512 35.6538C149.086 35.6538 145.498 39.242 145.498 43.6682C145.498 48.0945 149.086 51.6827 153.512 51.6827Z" stroke="#6100FF" stroke-linecap="round" stroke-linejoin="round"/>
</svg>
