<svg width="331" height="296" viewBox="0 0 331 296" fill="none" xmlns="http://www.w3.org/2000/svg">
<path d="M165.904 37.2241V26.0367H173.177V18.9595H150.771V26.0367H158.044V37.2241" stroke="#6100FF" stroke-miterlimit="10"/>
<path d="M262.183 235.621C259.292 241.673 256.429 247.735 253.591 253.814C227.619 250.636 203.045 242.498 179.713 230.758C183.496 225.061 187.319 219.392 191.18 213.749C213.687 224.76 237.292 232.456 262.186 235.621H262.183Z" stroke="#6100FF" stroke-miterlimit="10" stroke-linecap="round"/>
<path d="M271.602 216.246C268.996 221.536 266.412 226.835 263.851 232.147C246.476 229.914 229.722 225.518 213.348 219.309C216.56 214.171 219.798 209.048 223.066 203.947C238.821 209.823 254.928 214.032 271.602 216.248V216.246Z" stroke="#6100FF" stroke-miterlimit="10" stroke-linecap="round"/>
<path d="M280.594 198.304C278.247 202.927 275.919 207.558 273.607 212.2C261.881 210.627 250.446 208.1 239.117 204.7C241.859 200.136 244.628 195.588 247.423 191.056C258.33 194.298 269.319 196.739 280.591 198.307L280.594 198.304Z" stroke="#6100FF" stroke-miterlimit="10" stroke-linecap="round"/>
<path d="M210.686 162.136C245.912 180.806 284.719 191.737 325.435 188.452C314.707 215.37 304.54 242.501 294.79 269.787C218.882 281.685 149.089 243.951 96.1074 192.33C104.974 182.884 114.038 173.638 123.295 164.593" stroke="#6100FF" stroke-miterlimit="10" stroke-linecap="round"/>
<path d="M318.439 204.861C322.169 204.316 325.901 203.654 329.634 202.866C322.42 230.929 315.79 259.134 309.591 287.44C235.817 308.909 161.786 280.373 102.664 235.918C108.183 228.285 113.819 220.746 119.57 213.3" stroke="#6100FF" stroke-miterlimit="10" stroke-linecap="round"/>
<path d="M170.338 141.203C166.107 165.765 193.577 181.364 188.203 206.244C181.464 211.449 174.722 216.651 167.984 221.857C175.283 190.049 139.755 169.977 144.737 138.805" stroke="#6100FF" stroke-miterlimit="10"/>
<path d="M167.425 163.936C168.316 165.728 168.802 166.614 169.809 168.377C169.95 168.623 169.905 168.817 169.723 168.753C169.665 168.732 169.603 168.711 169.534 168.687C169.232 168.582 168.856 168.497 168.405 168.43C167.953 168.363 167.507 168.366 167.07 168.444C166.194 168.596 165.633 169.047 165.412 169.814C165.225 170.457 165.267 171.285 165.545 172.295C165.617 172.559 165.898 172.85 166.05 172.818C167.521 172.495 168.255 172.332 169.726 172.009C169.836 171.985 170.017 172.124 170.135 172.321C170.778 173.39 171.104 173.921 171.753 174.987C171.873 175.182 171.883 175.363 171.777 175.393C170.119 175.831 169.291 176.052 167.633 176.49C167.526 176.517 167.542 176.707 167.67 176.915C167.785 177.102 167.841 177.195 167.956 177.382C168.108 177.633 168.239 177.844 168.349 178.018C168.474 178.215 168.653 178.346 168.752 178.317C170.386 177.844 171.203 177.609 172.837 177.137C172.941 177.107 173.122 177.241 173.24 177.436C173.883 178.501 174.204 179.035 174.831 180.106C174.946 180.304 174.956 180.491 174.855 180.526C173.48 180.988 172.794 181.22 171.419 181.682C171.275 181.73 171.371 182.077 171.59 182.302C172.415 183.156 173.197 183.776 173.95 184.16C174.847 184.617 175.669 184.684 176.444 184.382C176.836 184.227 177.162 184.011 177.423 183.733C177.682 183.455 177.869 183.202 177.981 182.969C178.005 182.919 178.029 182.87 178.051 182.828C178.118 182.686 178.342 182.809 178.478 183.06C179.402 184.777 179.84 185.64 180.63 187.392C180.702 187.552 180.713 187.718 180.659 187.795C179.984 188.781 179.212 189.494 178.347 189.902C177.514 190.295 176.564 190.394 175.472 190.183C174.38 189.972 173.17 189.296 171.771 188.153C170.431 187.055 168.995 185.453 167.425 183.37C167.305 183.212 167.166 183.119 167.083 183.148C166.434 183.367 166.108 183.477 165.46 183.696C165.358 183.73 165.171 183.578 165.043 183.359C164.344 182.163 163.983 181.564 163.262 180.373C163.129 180.154 163.108 179.951 163.212 179.922C163.756 179.764 164.029 179.687 164.576 179.527C164.68 179.497 164.659 179.297 164.528 179.083C164.253 178.629 164.114 178.405 163.839 177.951C163.708 177.737 163.516 177.585 163.412 177.612C162.859 177.759 162.584 177.831 162.032 177.978C161.925 178.005 161.733 177.852 161.599 177.633C160.873 176.442 160.507 175.847 159.789 174.653C159.658 174.434 159.637 174.236 159.746 174.212C160.435 174.06 160.779 173.985 161.468 173.833C161.556 173.814 161.554 173.678 161.487 173.51C160.63 171.36 159.42 168.494 160.237 166.083C160.793 164.446 162.029 163.535 163.695 163.345C164.87 163.212 166.007 163.308 167.104 163.615C167.214 163.644 167.345 163.781 167.425 163.941V163.936Z" stroke="#6100FF" stroke-miterlimit="10"/>
<path d="M208.915 66.8844L213.435 63.6956L217.624 69.6405L223.407 65.5624L210.496 47.2471L204.713 51.3251L208.905 57.27L204.806 60.1597" stroke="#6100FF" stroke-miterlimit="10"/>
<path d="M161.975 142.528C191.085 142.528 214.683 118.922 214.683 89.8036C214.683 60.6849 191.085 37.0796 161.975 37.0796C132.864 37.0796 109.266 60.6849 109.266 89.8036C109.266 118.922 132.864 142.528 161.975 142.528Z" stroke="#6100FF" stroke-miterlimit="10"/>
<path d="M162.775 130.352C185.163 130.352 203.312 112.198 203.312 89.8039C203.312 67.4095 185.163 49.2554 162.775 49.2554C140.387 49.2554 122.238 67.4095 122.238 89.8039C122.238 112.198 140.387 130.352 162.775 130.352Z" stroke="#6100FF" stroke-miterlimit="10" stroke-linecap="round" stroke-dasharray="0.99 29.78"/>
<path d="M166.535 128.141C166.703 123.708 168.7 114.451 172.881 114.451C177.062 114.451 187.888 120.719 187.888 120.719C184.167 126.306 184.161 129.845 181.625 133.65C181.625 133.65 166.366 132.574 166.535 128.141Z" fill="#00FFC2"/>
<path d="M139.131 37.2241C139.131 37.2241 131.858 69.6618 112.219 86.2332C95.2089 100.585 77.3047 80.1521 77.3047 80.1521L85.5974 49.015L139.131 37.2241Z" fill="#6100FF"/>
<path d="M160.73 129.879V134.449" stroke="#6100FF" stroke-miterlimit="10"/>
<path d="M122.629 85.5039H117.086" stroke="#6100FF" stroke-miterlimit="10"/>
<path d="M165.328 84.4172C164.257 74.9071 161.798 55.4888 161.798 55.4888C161.798 55.4888 159.291 75.2836 158.236 84.6897C159.272 83.8911 160.567 83.4158 161.974 83.4158C163.213 83.4158 164.364 83.7843 165.328 84.4146V84.4172Z" stroke="#6100FF" stroke-miterlimit="10"/>
<path d="M167.027 93.0194C173.886 91.8577 184.814 89.7452 184.814 89.7452C184.814 89.7452 174.175 87.6888 167.302 86.519C167.812 87.4137 168.103 88.4473 168.103 89.5502C168.103 90.8375 167.705 92.0339 167.027 93.0194Z" stroke="#6100FF" stroke-miterlimit="10"/>
<path d="M167.304 86.519C166.821 85.6724 166.142 84.9514 165.328 84.4172" stroke="#6100FF" stroke-miterlimit="10"/>
<path d="M158.236 84.6897C156.781 85.8114 155.844 87.5687 155.844 89.5476C155.844 92.934 158.588 95.6794 161.974 95.6794C164.072 95.6794 165.923 94.6245 167.028 93.0168" stroke="#6100FF" stroke-miterlimit="10"/>
<path d="M165.328 84.4173C164.364 83.787 163.213 83.4185 161.974 83.4185C160.567 83.4185 159.272 83.8938 158.236 84.6924" stroke="#6100FF" stroke-miterlimit="10"/>
<path d="M167.027 93.0194C167.705 92.0313 168.103 90.8375 168.103 89.5502C168.103 88.4473 167.81 87.4137 167.302 86.519" stroke="#6100FF" stroke-miterlimit="10"/>
<path d="M161.974 134.703C186.764 134.703 206.86 114.601 206.86 89.8038C206.86 65.0067 186.764 44.9048 161.974 44.9048C137.184 44.9048 117.088 65.0067 117.088 89.8038C117.088 114.601 137.184 134.703 161.974 134.703Z" stroke="#6100FF" stroke-miterlimit="10"/>
<path d="M232.449 91.0645C238.453 117.779 217.164 119.368 200.165 112.854C181.748 105.796 185.357 86.5672 202.292 83.3277C202.292 83.3277 230.51 82.4463 232.446 91.0645H232.449Z" fill="#6100FF"/>
<path d="M192.002 106.095C189.602 102.989 192.813 92.2795 195.521 89.7558C199.197 86.3293 211.989 94.7632 213.593 95.9357C215.198 97.1081 209.086 110.037 209.086 110.037C209.086 110.037 194.399 109.198 191.999 106.092L192.002 106.095Z" fill="#00FFC2"/>
<path d="M175.403 107.836C187.041 107.727 197.296 113.864 212.202 115.899C220.831 117.077 219.112 137.491 203.127 140.031C197.788 140.88 164.318 140.274 164.318 124.672C164.318 124.672 162.42 107.956 175.401 107.833L175.403 107.836Z" fill="#6100FF"/>
<path d="M169.058 125.938C169.226 121.505 171.223 112.248 175.404 112.248C179.585 112.248 190.412 118.516 190.412 118.516C186.69 124.103 186.685 127.642 184.148 131.447C184.148 131.447 168.89 130.371 169.058 125.938Z" fill="#00FFC2"/>
<path d="M198.386 127.919C190.807 135.165 181.07 140.169 170.235 141.876C168.906 150.753 171.69 158.466 175.489 165.896C189.824 166.064 203.699 166.115 206.684 165.351C215.586 163.073 223.406 152.129 205.977 148.814C199.54 147.591 190.438 144.894 182.741 141.401C190.638 142.696 198.282 142.602 200.605 142.234C207.293 141.171 211.482 136.978 213.461 132.374C210.556 135.48 204.468 132.465 198.386 127.917V127.919Z" fill="#6100FF"/>
<path d="M245.764 41.2672C241.27 28.7499 240.605 22.4605 223.409 21.0958C208.321 19.8993 184.444 27.3878 165.947 34.3983V37.2319C182.263 38.4497 196.509 47.0919 205.317 59.7988L208.906 57.2671L204.717 51.3222L210.5 47.2441L219.812 60.4532C221.022 61.6977 221.31 62.3066 221.47 62.8033L223.411 65.5568C227.776 69.5574 235.172 71.5711 241.623 63.0357C244.231 59.5852 248.145 47.8851 245.769 41.2619L245.764 41.2672Z" fill="#6100FF"/>
<path d="M144.62 139.598C124.038 132.422 109.268 112.838 109.268 89.8036C109.268 69.6002 120.628 52.0566 137.307 43.2034C143.314 19.8299 153.908 21.0958 172.881 21.0958C181.336 21.0958 185.069 10.7871 179.571 4.45232C166.67 0.0110259 144.38 -0.963762 130.987 0.889669C104.251 5.07191 82.0005 30.0005 69.2997 44.8566C56.599 59.7127 52.4234 73.6649 30.8934 71.1304C6.98727 68.3156 -28.0443 67.5731 -46.002 71.3254L-43.7085 146.702C-31.2375 146.467 26.2371 139.844 44.8596 139.844C98.9755 167.723 122.188 166.12 143.784 165.647C145.309 165.615 147.236 165.602 149.452 165.607C145.709 157.521 143.304 149.068 144.62 139.598Z" fill="#6100FF"/>
<path d="M211.375 71.3867C213.511 77.1206 214.683 83.3245 214.683 89.8035C214.683 100.024 211.773 109.561 206.74 117.64C207.701 117.811 208.679 117.966 209.68 118.102C214.699 118.785 216.216 125.977 213.463 132.376C213.506 132.328 213.554 132.288 213.596 132.237C220.317 124.356 223.408 107.304 223.408 107.304C223.408 107.304 233.263 95.7644 232.451 91.0641C231.8 87.2878 217.126 75.7719 211.375 71.3867Z" fill="#6100FF"/>
<path d="M228.178 47.0654C228.178 47.0654 239.728 60.7498 237.705 64.0827C237.705 64.0827 241.357 61.1717 242.705 50.839L235.441 41.668L228.176 47.0654H228.178Z" fill="#00FFC2"/>
<path d="M154.875 2.48949C154.875 2.48949 155.185 0.702821 157.016 0.417062C161.331 -0.255942 170.542 0.497181 178.541 2.93281C178.541 2.93281 179.636 5.64887 177.377 5.16281C172.739 4.16398 154.747 1.13547 154.878 2.48682L154.875 2.48949Z" fill="#00FFC2"/>
</svg>
