<svg width="375" height="319" viewBox="0 0 375 319" fill="none" xmlns="http://www.w3.org/2000/svg">
<mask id="mask0_1_24979" style="mask-type:alpha" maskUnits="userSpaceOnUse" x="0" y="0" width="393" height="319">
<rect width="393" height="318.957" fill="#D9D9D9"/>
</mask>
<g mask="url(#mask0_1_24979)">
<path d="M140.167 229.326L60.9936 190.598C60.9936 190.598 109.973 161.673 133.689 120.172C159.036 75.8091 178.046 32.8997 178.046 32.8997L304.203 73.551C304.203 73.551 302.102 156.955 252.34 208.825L202.577 260.688L161.568 238.314" stroke="#6100FF" stroke-miterlimit="10"/>
<path d="M303.995 77.4805L319.455 83.0195C319.455 83.0195 319.852 156.933 279.927 215.828C240.008 274.723 238.029 274.326 238.029 274.326L206.086 257.022" stroke="#6100FF" stroke-miterlimit="10"/>
<path d="M178.039 32.8997C181.902 36.7731 330.919 75.8986 330.522 77.4803C330.126 79.0621 338.823 138.751 314.71 208.316C290.598 277.881 287.44 283.023 287.44 283.023L245.246 265.512" stroke="#6100FF" stroke-miterlimit="10"/>
<path d="M294.554 274.326L321.434 281.044C321.434 281.044 344.361 213.061 341.594 149.42C338.828 85.7801 336.849 69.9734 336.849 69.9734L184.103 35.3306" stroke="#6100FF" stroke-miterlimit="10"/>
<path d="M280.129 88.9498C276.961 88.9498 274.394 86.3823 274.394 83.2151C274.394 80.048 276.961 77.4805 280.129 77.4805C283.296 77.4805 285.863 80.048 285.863 83.2151C285.863 86.3823 283.296 88.9498 280.129 88.9498Z" stroke="#6100FF" stroke-miterlimit="10"/>
<path d="M247.521 77.4754C245.119 77.4754 243.172 75.5285 243.172 73.1268C243.172 70.7252 245.119 68.7783 247.521 68.7783C249.922 68.7783 251.869 70.7252 251.869 73.1268C251.869 75.5285 249.922 77.4754 247.521 77.4754Z" stroke="#6100FF" stroke-miterlimit="10"/>
<path d="M214.615 65.8267C212.158 65.8267 210.166 63.8348 210.166 61.3776C210.166 58.9204 212.158 56.9285 214.615 56.9285C217.073 56.9285 219.064 58.9204 219.064 61.3776C219.064 63.8348 217.073 65.8267 214.615 65.8267Z" stroke="#6100FF" stroke-miterlimit="10"/>
<path d="M186.451 56.9327C184.157 56.9327 182.298 55.0734 182.298 52.7798C182.298 50.4863 184.157 48.627 186.451 48.627C188.744 48.627 190.604 50.4863 190.604 52.7798C190.604 55.0734 188.744 56.9327 186.451 56.9327Z" stroke="#6100FF" stroke-miterlimit="10"/>
<path d="M327.27 67.4805C327.27 53.1829 315.677 41.5906 301.38 41.5906C287.082 41.5906 275.49 53.1829 275.49 67.4805C275.49 75.2832 278.938 82.2755 284.399 87.0264" stroke="#6100FF" stroke-miterlimit="10"/>
<path d="M288.115 58.9173C286.891 47.6268 277.328 38.8347 265.713 38.8347C253.266 38.8347 243.177 48.9235 243.177 61.371C243.177 67.441 245.58 72.9521 249.482 77.0044" stroke="#6100FF" stroke-miterlimit="10"/>
<path d="M247.52 48.6268C247.52 38.2139 239.08 29.7739 228.667 29.7739C218.254 29.7739 209.814 38.2139 209.814 48.6268C209.814 55.1328 213.111 60.8731 218.125 64.2602" stroke="#6100FF" stroke-miterlimit="10"/>
<path d="M214.263 42.1767C214.492 41.1035 214.609 39.9857 214.609 38.8399C214.609 30.0199 207.461 22.8655 198.635 22.8655C189.809 22.8655 182.661 30.0143 182.661 38.8399C182.661 44.7534 185.875 49.918 190.653 52.6791" stroke="#6100FF" stroke-miterlimit="10"/>
<path d="M206.459 97.208C190.686 91.4677 185.734 86.5267 170.067 80.3784C157.608 112.685 139.554 146.976 112.083 169.422" stroke="#6100FF" stroke-miterlimit="10"/>
<path d="M227.945 199.695C241.091 189.232 263.258 156.26 274.471 117.649C259.066 112.887 251.912 110.802 236.759 105.425" stroke="#6100FF" stroke-miterlimit="10"/>
<path d="M261.6 153.255C226.364 140.059 245.089 149.499 211.022 133.564" stroke="#6100FF" stroke-miterlimit="10"/>
<path d="M245.076 180.248C210.199 166.442 176.271 150.91 142.629 134.332" stroke="#6100FF" stroke-miterlimit="10"/>
<path d="M230.746 199.028C196.249 184.809 195.986 185.625 162.785 168.611" stroke="#6100FF" stroke-miterlimit="10"/>
<path d="M236.754 105.425C227.794 133.327 213.541 160.704 194.074 183.206" stroke="#6100FF" stroke-miterlimit="10"/>
<path d="M178.037 151.201C168.764 177.622 181.514 146.864 162.784 168.618" stroke="#6100FF" stroke-miterlimit="10"/>
<path d="M200.693 201.431C200.961 201.649 201.263 201.481 201.525 201.459C202.794 201.33 204.069 201.218 205.337 201.118C206.69 201.011 208.037 200.81 209.395 200.816C210.172 200.816 210.932 200.928 211.57 201.475C212.212 202.029 212.346 203.119 212.106 203.856C211.905 204.482 211.603 205.069 211.407 205.69C210.809 207.545 211.748 210.016 213.867 210.731C215.695 211.352 217.891 210.636 218.713 208.658C219.294 207.266 219.272 205.891 218.389 204.594C218.081 204.141 217.779 203.678 217.567 203.163C217.332 202.599 217.271 202.017 217.489 201.436C217.774 200.67 218.4 200.318 219.138 200.056C219.976 199.759 220.859 199.754 221.72 199.681C223.469 199.536 225.213 199.357 226.963 199.245C227.427 199.217 227.89 199.094 228.371 199.15C229.165 208.311 229.959 217.45 230.758 226.611C230.199 226.756 229.551 226.756 228.913 226.812C227.583 226.929 226.253 227.063 224.923 227.164C223.235 227.293 221.552 227.443 219.864 227.589C218.148 227.734 216.438 227.891 214.722 228.041C213.358 228.164 211.989 228.271 210.625 228.388C209.01 228.528 207.394 228.662 205.779 228.818C205.019 228.891 204.253 228.947 203.493 229.014C203.286 229.031 203.213 228.992 203.191 228.785C202.973 226.37 202.8 223.95 202.554 221.535C202.481 220.814 202.397 220.116 202.124 219.428C201.598 218.092 200.262 217.729 199.021 218.299C198.507 218.54 198.027 218.847 197.557 219.16C196.618 219.775 195.612 219.892 194.556 219.669C193.192 219.378 192.197 218.635 191.677 217.293C190.906 215.298 191.761 213.006 193.935 212.212C194.645 211.955 195.372 211.793 196.126 211.944C196.719 212.062 197.272 212.324 197.831 212.548C198.451 212.794 199.072 212.961 199.765 212.833C200.654 212.665 201.117 212.112 201.369 211.301C201.682 210.295 201.475 209.284 201.397 208.278C201.229 206.07 201.011 203.873 200.838 201.665C200.838 201.632 200.849 201.593 200.855 201.559" stroke="#6100FF" stroke-linecap="round" stroke-linejoin="round"/>
<path d="M166.743 246.261C166.464 246.037 166.33 245.707 166.145 245.422C164.631 243.047 163.088 240.688 161.562 238.318C161.026 237.485 160.612 236.586 160.662 235.557C160.696 234.864 161.02 234.305 161.568 233.869C162.322 233.277 163.217 233.165 164.128 233.087C165.067 233.003 165.994 232.88 166.811 232.343C167.856 231.656 168.633 230.739 168.979 229.554C169.37 228.218 169.141 226.933 168.348 225.753C167.923 225.122 167.397 224.613 166.732 224.25C165.955 223.831 165.111 223.629 164.234 223.73C163.149 223.847 162.149 224.222 161.288 224.926C161.065 225.111 161.031 225.502 160.645 225.496C160.645 225.496 158.309 229.381 157.079 229.085C155.85 228.788 154.939 228.056 154.262 227.017C153.709 226.156 153.156 225.295 152.602 224.434C151.434 222.612 150.26 220.784 149.059 218.951C146.845 220.404 144.615 221.796 142.43 223.255C141.591 223.814 140.708 224.3 139.959 224.988C138.366 226.441 138.657 228.274 140.155 229.336C140.786 229.783 141.491 230.096 142.111 230.543C143.436 231.499 144.067 232.807 144.118 234.45C144.157 235.647 143.833 236.669 143.017 237.541C141.72 238.933 140.121 239.447 138.305 238.933C137.014 238.564 136.047 237.676 135.37 236.502C134.839 235.585 134.856 234.551 134.744 233.545C134.666 232.841 134.521 232.164 134.062 231.583C133.347 230.678 132.419 230.476 131.34 230.734C130.357 230.968 129.541 231.538 128.719 232.075C126.467 233.545 124.214 235.009 121.934 236.435C121.878 236.468 121.839 236.519 121.788 236.597C127.64 245.668 133.498 254.745 139.372 263.856C140.518 263.185 141.614 262.431 142.726 261.721C144.241 260.754 145.739 259.77 147.253 258.803C147.863 258.412 148.41 257.942 148.802 257.339C149.646 256.031 149.422 254.824 148.176 253.778C147.566 253.27 146.801 252.979 146.152 252.526C144.61 251.442 143.944 249.905 144.056 248.027C144.218 245.277 147.158 243.209 149.886 244.081C151.63 244.64 153.24 246.115 153.357 248.558C153.39 249.229 153.458 249.899 153.676 250.548C153.888 251.191 154.262 251.705 154.838 252.062C155.531 252.493 156.263 252.426 156.996 252.225C157.75 252.018 158.404 251.604 159.064 251.179C160.601 250.179 162.149 249.19 163.692 248.189C164.659 247.563 165.637 246.948 166.598 246.311" stroke="#6100FF" stroke-linecap="round" stroke-linejoin="round"/>
<path d="M221.535 125.537C221.161 125.414 221.127 125.011 220.993 124.743C220.322 123.43 219.64 122.122 218.942 120.819C218.198 119.439 217.556 118.002 216.7 116.683C216.209 115.929 215.633 115.258 214.699 114.984C213.76 114.705 212.615 115.252 212.044 115.951C211.564 116.538 211.178 117.192 210.697 117.779C209.261 119.517 206.276 120.149 204.258 118.539C202.515 117.147 201.838 114.57 203.247 112.53C204.236 111.099 205.589 110.261 207.4 110.306C208.031 110.323 208.674 110.323 209.3 110.211C209.993 110.088 210.602 109.786 211.027 109.21C211.592 108.456 211.547 107.623 211.34 106.745C211.105 105.739 210.563 104.884 210.094 104.001C209.144 102.212 208.227 100.401 207.243 98.6296C206.98 98.1601 206.813 97.6347 206.455 97.1987C197.048 102.145 187.669 107.086 178.257 112.033C178.464 112.664 178.872 113.296 179.218 113.956C179.934 115.325 180.638 116.694 181.37 118.053C182.298 119.774 183.203 121.507 184.114 123.24C185.042 125 185.965 126.761 186.887 128.521C187.619 129.924 188.368 131.322 189.106 132.719C189.983 134.374 190.861 136.034 191.716 137.699C192.118 138.487 192.543 139.264 192.951 140.047C193.063 140.259 193.147 140.304 193.365 140.192C195.846 138.895 198.311 137.548 200.81 136.279C201.559 135.899 202.291 135.547 203.129 135.38C204.756 135.055 205.941 136.129 206.164 137.688C206.254 138.336 206.248 138.996 206.243 139.65C206.232 140.947 206.746 141.997 207.623 142.886C208.752 144.032 210.105 144.535 211.726 144.2C214.146 143.702 215.84 141.438 215.258 138.828C215.068 137.973 214.766 137.168 214.146 136.531C213.66 136.028 213.067 135.653 212.497 135.251C211.871 134.804 211.318 134.301 211.01 133.546C210.619 132.579 210.865 131.78 211.497 131.031C212.279 130.098 213.391 129.667 214.42 129.114C216.667 127.901 218.947 126.738 221.2 125.526C221.233 125.509 221.261 125.47 221.295 125.447" stroke="#6100FF" stroke-linecap="round" stroke-linejoin="round"/>
<path d="M-148 142.66C-119.254 154.057 14.1702 179.444 27.8306 160.809C41.491 142.174 63.6248 107.185 63.6248 107.185C63.8875 105.402 75.0663 91.2605 84.7973 78.7292C94.5284 66.1979 93.7794 61.7991 105.171 59.8707C120.944 57.199 131.91 63.7945 131.91 63.7945C131.91 63.7945 133.844 62.3915 139.226 61.2289C139.226 61.2289 151.797 60.0552 167.581 62.5313C188.351 65.7955 195.422 69.4732 191.822 77.4437C191.822 77.4437 211.463 71.8431 215.275 74.8223C219.087 77.807 228.651 87.1021 212.307 95.0222C195.97 102.942 173.88 104.558 165.284 109.364C156.688 114.171 141.887 119.889 134.638 127.932C127.388 135.975 123.09 148.697 123.655 157.276C124.213 165.856 121.883 172.798 130.792 176.537C139.702 180.277 159.79 166.885 172.958 153.28C179.85 146.165 191.263 132.706 197.087 142.66C202.912 152.62 195.567 158.322 191.241 163.721C186.205 170.009 183.058 172.893 178.324 179.131C173.472 185.525 155.257 202.561 148.533 206.099C139.953 210.616 130.887 216.378 120.899 219.642C110 223.208 101.722 228.11 91.2698 229.005C80.8177 229.899 73.2441 228.988 62.7306 229.066C49.5564 229.161 -103.766 221.062 -148 219.642" fill="#6100FF"/>
<path d="M107.44 110.584C109.832 106.688 140.484 88.1203 147.544 85.5156C154.603 82.911 191.828 77.4502 191.828 77.4502" stroke="white" stroke-miterlimit="10"/>
<path d="M95.0204 94.5308C95.0204 94.5308 110.033 80.6859 118.194 74.5265C125.326 69.1383 131.91 63.7949 131.91 63.7949" stroke="white" stroke-miterlimit="10"/>
<path d="M199.234 149.898C199.117 146.315 197.915 143.565 195.4 141.827C191.605 145.331 188.626 149.177 186.586 153.408C188.62 156.04 190.057 158.494 190.236 160.573C193.578 157.415 196.669 153.967 199.234 149.903V149.898Z" fill="#00FFC2"/>
<path d="M214.035 73.4785C216.941 74.8758 219.753 76.86 220.541 79.1629C214.136 79.3753 206.4 79.2411 199.9 80.7782C200.375 80.7782 199.067 77.3799 197.194 76.7594C202.756 75.1218 207.993 73.6462 214.035 73.4729V73.4785Z" fill="#00FFC2"/>
<path d="M191.822 70.8653V68.7973L182.074 65.5107C182.074 65.5107 181.778 66.5839 182.074 66.9304C182.371 67.277 191.822 70.8598 191.822 70.8598V70.8653Z" fill="#00FFC2"/>
<path d="M184.121 123.248L159.276 112.477" stroke="#6100FF" stroke-miterlimit="10"/>
<path d="M181.375 118.064C181.375 118.064 173.024 137.868 165.261 144.318" stroke="#6100FF" stroke-miterlimit="10"/>
</g>
</svg>
