<svg width="331" height="266" viewBox="0 0 331 266" fill="none" xmlns="http://www.w3.org/2000/svg">
<path d="M-23.3506 265.5C-4.40064 261.903 121.825 250.507 132.501 245.51C147.678 238.406 166.204 225.094 170.937 219.92C174.896 215.594 174.04 216.755 178.194 212.614L144.006 112.954C142.891 109.032 141.533 104.224 140.691 102.978C138.518 99.7725 136.591 96.3608 133.994 93.4722C132.939 92.2979 132.501 91.1168 132.562 89.6387C132.626 88.0932 132.515 86.5071 132.815 85.0088C133.273 82.7242 134.307 72.1416 134.307 72.1416C134.395 66.4555 131.103 48.027 124.531 46.6468C121.809 46.0732 120.144 48.8133 118.871 51.2666C115.987 56.8211 114.198 62.7705 112.571 68.7704C111.261 73.6062 110.152 78.4993 108.737 83.3047C107.508 87.479 107.609 91.5723 108.542 95.7568C109.849 101.612 111.867 107.254 113.46 113.024C114.865 118.11 115.819 123.266 116.762 128.433C117.581 132.921 118.463 137.406 119.056 141.928C120.053 149.554 120.71 157.218 119.693 164.901C119.349 167.497 117.87 169.724 117.17 172.268C112.861 187.909 -4.29437 181.858 -18.026 189.889L-34 219.92L-23.3506 265.5Z" fill="#6100FF"/>
<path d="M242.307 115.252L264.151 173.365C265.603 177.168 265.98 181.778 261.187 184.238C248.681 190.653 235.849 197.321 222.636 204.158C213.567 208.852 204.33 213.657 194.89 218.52C192.367 219.819 189.884 220.555 187.192 218.77C185.835 217.872 185.306 216.452 184.837 215.081L123.941 32.1297C123.372 30.0003 122.186 28.0262 122.163 25.7754C122.132 22.637 123.537 20.6899 126.505 19.8328C137.508 16.6607 148.268 13.546 158.83 10.5595C170.557 7.24568 181.906 3.72939 193.169 0.759777C196.608 -0.147979 199.489 1.33683 200.867 5.0016L225.813 72.1891" stroke="#6100FF" stroke-linecap="round" stroke-linejoin="round"/>
<path d="M237.166 119.629L255.352 168.324C252.441 169.788 249.52 171.283 246.566 172.744C232.379 179.77 217.748 187.032 202.619 194.466C198.647 196.417 194.712 198.59 190.561 200.25C188.378 201.121 188.355 201.286 187.425 198.718C185.818 194.274 184.187 189.853 182.776 185.359C178.312 171.179 173.42 157.41 168.808 143.713C164.045 129.56 159.217 115.64 154.672 101.825C148.73 83.7607 142.487 66.1455 136.922 48.6383C135.618 44.5382 134.041 40.5326 132.879 36.4156C132.256 34.1985 132.222 34.0467 134.25 33.4528C144.926 30.3245 155.326 27.0951 165.544 24.031C175.088 21.1694 184.416 18.2639 193.59 15.4799C194.045 15.3415 194.574 15.1964 195.012 15.1323C197.629 14.7645 198.145 15.1525 199.199 17.9635L218.055 68.4469" stroke="#6100FF" stroke-linecap="round" stroke-linejoin="round"/>
<path d="M127.658 49.3196C125.812 51.2262 126.27 53.7976 125.812 56.0755C125.074 59.7605 124.42 63.4556 123.231 67.0259C121.914 70.9843 119.192 72.0709 115.449 70.1912C114.647 69.7897 113.872 69.3004 112.922 69.3476C112.922 69.3476 111.693 54.8809 120.287 43.1138L127.658 49.3196Z" fill="#00FFC2"/>
<path d="M133.131 91.6973C131.359 92.6894 130.025 94.3429 128.078 95.0718" stroke="white" stroke-linecap="round" stroke-linejoin="round"/>
<path d="M133.475 80.2305L180.083 218.213C181.347 221.952 185.682 223.632 189.129 221.719L194.886 218.523" stroke="#6100FF" stroke-linecap="round" stroke-linejoin="round"/>
<path d="M123.366 20.3149L119.07 27.1754C117.625 29.4802 117.295 32.3149 118.164 34.8964L121.738 44.5679" stroke="#6100FF" stroke-linecap="round" stroke-linejoin="round"/>
<path d="M117.686 32.9053L122.163 27.3677" stroke="#6100FF" stroke-linecap="round" stroke-linejoin="round"/>
<path d="M118.766 36.6851L123.94 32.1294" stroke="#6100FF" stroke-linecap="round" stroke-linejoin="round"/>
<path d="M120.26 41.1026L125.444 36.6482" stroke="#6100FF" stroke-linecap="round" stroke-linejoin="round"/>
<path d="M122.162 44.693L126.862 40.9033" stroke="#6100FF" stroke-linecap="round" stroke-linejoin="round"/>
<path d="M134.004 75.4485L137.241 72.0874" stroke="#6100FF" stroke-linecap="round" stroke-linejoin="round"/>
<path d="M133.475 80.2308L138.784 76.7246" stroke="#6100FF" stroke-linecap="round" stroke-linejoin="round"/>
<path d="M134.631 83.6491L140.115 80.72" stroke="#6100FF" stroke-linecap="round" stroke-linejoin="round"/>
<path d="M136.129 88.0866L141.546 85.0293" stroke="#6100FF" stroke-linecap="round" stroke-linejoin="round"/>
<path d="M137.373 91.7645L143.087 89.6487" stroke="#6100FF" stroke-linecap="round" stroke-linejoin="round"/>
<path d="M138.838 96.1078L144.329 93.3811" stroke="#6100FF" stroke-linecap="round" stroke-linejoin="round"/>
<path d="M140.229 100.225L145.848 97.9536" stroke="#6100FF" stroke-linecap="round" stroke-linejoin="round"/>
<path d="M141.584 104.234L147.355 102.472" stroke="#6100FF" stroke-linecap="round" stroke-linejoin="round"/>
<path d="M143.039 107.925L148.648 106.366" stroke="#6100FF" stroke-linecap="round" stroke-linejoin="round"/>
<path d="M149.915 110.166L144.154 111.847" stroke="#6100FF" stroke-linecap="round" stroke-linejoin="round"/>
<path d="M145.846 115.964L151.431 114.722" stroke="#6100FF" stroke-linecap="round" stroke-linejoin="round"/>
<path d="M147.035 120.371L152.375 119.945" stroke="#6100FF" stroke-linecap="round" stroke-linejoin="round"/>
<path d="M148.295 124.104L154.332 122.855" stroke="#6100FF" stroke-linecap="round" stroke-linejoin="round"/>
<path d="M149.707 128.277L155.475 126.87" stroke="#6100FF" stroke-linecap="round" stroke-linejoin="round"/>
<path d="M151.037 132.216L156.909 131.18" stroke="#6100FF" stroke-linecap="round" stroke-linejoin="round"/>
<path d="M152.59 136.039L158.25 135.691" stroke="#6100FF" stroke-linecap="round" stroke-linejoin="round"/>
<path d="M153.971 140.908L159.691 139.535" stroke="#6100FF" stroke-linecap="round" stroke-linejoin="round"/>
<path d="M155.42 143.996L161.012 143.652" stroke="#6100FF" stroke-linecap="round" stroke-linejoin="round"/>
<path d="M156.832 147.978L162.162 146.959" stroke="#6100FF" stroke-linecap="round" stroke-linejoin="round"/>
<path d="M157.777 152.173L163.579 151.218" stroke="#6100FF" stroke-linecap="round" stroke-linejoin="round"/>
<path d="M159.496 155.419L164.789 154.849" stroke="#6100FF" stroke-linecap="round" stroke-linejoin="round"/>
<path d="M160.402 159.947L167.231 159.569" stroke="#6100FF" stroke-linecap="round" stroke-linejoin="round"/>
<path d="M161.656 163.66L167.484 162.948" stroke="#6100FF" stroke-linecap="round" stroke-linejoin="round"/>
<path d="M162.992 167.622L168.935 167.308" stroke="#6100FF" stroke-linecap="round" stroke-linejoin="round"/>
<path d="M164.57 170.993L170.058 170.682" stroke="#6100FF" stroke-linecap="round" stroke-linejoin="round"/>
<path d="M165.5 175.032L171.032 175.319" stroke="#6100FF" stroke-linecap="round" stroke-linejoin="round"/>
<path d="M167.312 179.297L172.908 179.247" stroke="#6100FF" stroke-linecap="round" stroke-linejoin="round"/>
<path d="M168.545 184.052L174.36 183.61" stroke="#6100FF" stroke-linecap="round" stroke-linejoin="round"/>
<path d="M169.717 187.524L175.697 188.297" stroke="#6100FF" stroke-linecap="round" stroke-linejoin="round"/>
<path d="M171.453 192.661L177.211 192.175" stroke="#6100FF" stroke-linecap="round" stroke-linejoin="round"/>
<path d="M172.705 196.373L178.628 196.43" stroke="#6100FF" stroke-linecap="round" stroke-linejoin="round"/>
<path d="M174.211 200.827L179.837 200.065" stroke="#6100FF" stroke-linecap="round" stroke-linejoin="round"/>
<path d="M175.377 204.279L181.05 204.907" stroke="#6100FF" stroke-linecap="round" stroke-linejoin="round"/>
<path d="M176.721 208.255L182.751 208.818" stroke="#6100FF" stroke-linecap="round" stroke-linejoin="round"/>
<path d="M178.193 212.614L183.83 212.058" stroke="#6100FF" stroke-linecap="round" stroke-linejoin="round"/>
<path d="M179.736 217.18L184.837 216.536" stroke="#6100FF" stroke-linecap="round" stroke-linejoin="round"/>
<path d="M181.01 220.956L188.997 219.62" stroke="#6100FF" stroke-linecap="round" stroke-linejoin="round"/>
<path d="M202.105 72.0874L246.814 70.4608L270.224 45.1348L279.674 35.9863C287.534 36.2833 292.506 39.3609 294.342 45.4621C294.342 45.4621 285.704 58.7714 280.173 66.1211C274.641 73.4743 264.012 82.4304 259.558 86.0783C255.105 89.7262 234.076 94.1064 223.885 97.3156C223.885 97.3156 253.619 97.4843 261.644 92.716C269.665 87.9444 298.291 73.8793 298.291 73.8793C298.291 73.8793 302.195 82.7476 301.222 90.3471C301.222 90.3471 273.556 107.476 262.223 113.291C250.887 119.105 238.075 117.533 238.075 117.533C232.018 116.075 210.194 120.158 210.194 120.158" stroke="#6100FF" stroke-miterlimit="10"/>
<path d="M279.674 35.9898C279.674 35.9898 281.547 28.2587 284.599 27.8942L286.775 25.1204C291.04 25.3397 300.049 28.7615 302.919 30.3509C307.44 32.8549 314.744 35.7401 316.661 38.8751C318.578 42.01 320.461 45.4656 317.608 47.4127C316.341 48.2766 316.418 47.7873 311.042 46.1169C305.665 44.4465 298.351 43.1169 298.351 43.1169H293.405" stroke="#6100FF" stroke-miterlimit="10"/>
<path d="M299.094 75.9617C299.094 75.9617 308.126 71.5073 310.565 70.7616C313.139 69.9753 313.607 67.8392 315.739 71.6558C316.417 72.8673 317.336 75.9213 319.654 78.7424C325.068 85.3329 330.084 96.2968 330.04 98.9864C329.973 102.914 328.716 103.002 326.079 102.337C323.444 101.673 321.126 97.5387 316.77 94.2384C312.418 90.9347 304.689 88.3194 302.375 88.6771" stroke="#6100FF" stroke-miterlimit="10"/>
<path d="M311.042 46.1171C311.042 46.1171 311.999 41.5581 316.143 40.5188C316.143 40.5188 314.242 38.2072 309.752 35.9901C305.261 33.773 299.904 30.6549 297.142 30.1386C294.379 29.6189 287.985 28.5796 287.985 28.5796L284.6 27.8945" stroke="#6100FF" stroke-miterlimit="10"/>
<path d="M246.814 70.4612C246.814 70.4612 245.106 72.0877 242.725 75.82" stroke="#6100FF" stroke-miterlimit="10"/>
<path d="M310.564 70.7612C310.564 70.7612 315.968 78.5868 318.043 81.3573C320.119 84.1279 326.681 96.2392 326.681 96.2392C326.681 96.2392 322.298 97.5147 323.107 100.339" stroke="#6100FF" stroke-miterlimit="10"/>
<path d="M306.211 89.237L307.006 84.1448" stroke="#6100FF" stroke-miterlimit="10"/>
<path d="M308.512 89.9764L309.307 85.2217" stroke="#6100FF" stroke-miterlimit="10"/>
<path d="M310.564 91.1437L311.767 86.0515" stroke="#6100FF" stroke-miterlimit="10"/>
<path d="M313.053 91.9469L315 88.5994" stroke="#6100FF" stroke-miterlimit="10"/>
<path d="M315.51 93.3575L317.831 91.1438" stroke="#6100FF" stroke-miterlimit="10"/>
<path d="M318.141 95.3589L320.442 92.9124" stroke="#6100FF" stroke-miterlimit="10"/>
<path d="M295.72 43.1138L294.262 38.6931" stroke="#6100FF" stroke-miterlimit="10"/>
<path d="M298.348 43.1138L297.102 38.6931" stroke="#6100FF" stroke-miterlimit="10"/>
<path d="M300.369 43.5053V39.0779" stroke="#6100FF" stroke-miterlimit="10"/>
<path d="M301.984 43.839C301.984 43.839 302.631 40.6129 302.554 39.9211" stroke="#6100FF" stroke-miterlimit="10"/>
<path d="M304.309 44.3521L305.009 40.9033" stroke="#6100FF" stroke-miterlimit="10"/>
<path d="M306.211 44.801L307.006 41.2915" stroke="#6100FF" stroke-miterlimit="10"/>
<path d="M262.221 113.291C262.221 113.291 265.354 109.39 265.873 105.584" stroke="#6100FF" stroke-miterlimit="10"/>
<path d="M180.764 70.8456L203.067 70.7612C203.087 96.5834 213.251 110.068 211.148 118.832L209.767 125.193C208.383 126.485 205.984 126.708 201.935 125.193L196.1 123.479C196.1 123.479 181.846 102.985 181.01 92.2504C180.175 81.516 180.764 70.8456 180.764 70.8456Z" fill="#6100FF" stroke="#6100FF" stroke-miterlimit="10"/>
<path d="M218.478 117.752C218.616 126.07 216.551 132.118 212.34 133.677C204.561 136.558 192.403 123.043 185.184 103.491C177.964 83.939 178.419 65.7501 186.198 62.8682C190.648 61.218 196.533 64.9368 202.105 72.0841" stroke="#6100FF" stroke-miterlimit="10"/>
<path d="M219.416 123.199C219.416 123.199 225.679 118.363 239.134 125.23" stroke="#6100FF" stroke-miterlimit="10"/>
<path d="M219.473 126.658C219.473 126.658 223.93 123.202 234.427 129.31" stroke="#6100FF" stroke-miterlimit="10"/>
<path d="M216.389 46.3023C219.596 44.993 223.201 41.5003 220.782 34.407C218.363 27.3137 208.887 26.3418 208.887 26.3418L216.389 46.3023Z" fill="#6100FF"/>
<path d="M236.078 71.1221C235.479 61.6801 222.475 62.4867 222.475 62.4867L225.813 72.1885L236.078 71.1221Z" fill="#6100FF"/>
<path d="M246.814 127.241C246.814 127.241 254.967 123.344 251.868 116.797L242.725 117.722L246.814 127.238V127.241Z" fill="#6100FF"/>
<path d="M211.434 99.0909C211.434 99.0909 220.853 98.5071 229.272 95.7568" stroke="#6100FF" stroke-miterlimit="10"/>
</svg>
