<svg width="286" height="402" viewBox="0 0 286 402" fill="none" xmlns="http://www.w3.org/2000/svg">
<path d="M194.144 149.736C203.039 149.736 210.25 142.511 210.25 133.598C210.25 124.686 203.039 117.46 194.144 117.46C185.248 117.46 178.037 124.686 178.037 133.598C178.037 142.511 185.248 149.736 194.144 149.736Z" stroke="#6100FF" stroke-miterlimit="10"/>
<path d="M270.535 0.5H172.29C164.207 0.5 157.654 7.06552 157.654 15.1645V208.258C157.654 216.357 164.207 222.923 172.29 222.923H270.535C278.618 222.923 285.171 216.357 285.171 208.258V15.1645C285.171 7.06552 278.618 0.5 270.535 0.5Z" stroke="#6100FF" stroke-miterlimit="10"/>
<path d="M245.936 117.452H194.144C185.248 117.452 178.037 124.677 178.037 133.59V133.598C178.037 142.511 185.248 149.736 194.144 149.736H245.936C254.832 149.736 262.043 142.511 262.043 133.598V133.59C262.043 124.677 254.832 117.452 245.936 117.452Z" stroke="#6100FF" stroke-miterlimit="10"/>
<path d="M262.052 18.9915H180.775V109.324H262.052V18.9915Z" stroke="#6100FF" stroke-miterlimit="10"/>
<path d="M238.281 60.6059C238.771 59.7762 238.509 58.8617 238.45 58.0066C238.323 56.0762 238.399 54.1373 238.306 52.2068C238.086 47.7448 238.002 43.2828 237.867 38.8208C237.85 38.3213 237.808 37.8217 237.782 37.3222C237.715 36.3062 237.072 35.6712 236.092 35.6204C235.171 35.5696 234.52 36.1284 234.292 37.119C234.047 38.2112 234.242 39.3204 234.115 40.4211C233.844 42.741 234.089 45.0863 233.895 47.4146C233.768 48.9471 234.047 50.5389 233.726 51.9952C233.388 53.5192 234.165 55.0686 233.396 56.508C233.946 57.8288 233.16 59.2851 233.794 60.6059" stroke="#6100FF" stroke-linecap="round" stroke-linejoin="round"/>
<path d="M198.782 56.9143C198.613 58.0404 199.002 59.1157 199.061 60.2164C199.12 61.2916 199.061 62.3077 198.207 63.239C196.644 64.9493 196.492 68.9287 197.785 70.7067C198.266 71.3587 198.892 71.8328 199.771 71.8159C200.379 71.799 200.616 71.9852 200.7 72.7134C201.173 76.8198 201.748 80.9092 202.28 85.0072C202.416 86.074 202.483 87.1577 202.754 88.2076C203.049 89.376 203.506 89.7994 204.655 89.7994C210.241 89.7994 215.826 89.884 221.412 89.757C223.508 89.7147 225.595 89.901 227.699 89.8163C229.786 89.7316 231.891 89.7994 233.978 89.7994C236.471 89.7994 238.964 89.7994 241.456 89.7994C243.451 89.7994 245.445 89.7994 247.439 89.7994C248.994 89.7994 249.713 88.8426 249.332 87.3017C248.115 82.3062 246.797 77.3278 245.623 72.3154C245.369 71.2486 245.09 70.1818 244.845 69.115" stroke="#6100FF" stroke-linecap="round" stroke-linejoin="round"/>
<path d="M233.193 56.6095C222.258 56.6095 211.323 56.6095 200.38 56.6095C199.915 56.6095 199.45 56.6095 198.986 56.7026C198.174 56.872 197 55.9575 196.89 55.1109C196.755 54.0695 197.448 53.1804 198.487 53.1212C199.146 53.0788 199.822 53.155 200.481 53.1042C201.555 53.0111 202.602 52.8926 203.304 51.8342C203.54 51.4786 204.03 51.1484 204.571 51.1145C205.205 51.0722 205.577 50.6235 205.754 50.107C206.27 48.5406 207.385 47.6262 208.864 47.1267C209.498 46.915 209.701 46.4832 209.87 45.9159C210.529 43.6807 212.549 43.6384 214.146 44.5274C214.332 44.629 214.382 44.883 214.348 45.12" stroke="#6100FF" stroke-linecap="round" stroke-linejoin="round"/>
<path d="M203.076 52.5117C203.617 53.0028 204.259 53.1213 204.969 53.1213C213.149 53.1129 221.329 53.1721 229.501 53.0536C230.768 53.0367 232.027 53.0536 233.295 53.1129" stroke="#6100FF" stroke-linecap="round" stroke-linejoin="round"/>
<path d="M227.109 69.1067C226.002 74.517 224.456 79.8172 223.213 85.1936C222.892 86.5822 222.258 87.9199 222.723 89.3931" stroke="#6100FF" stroke-linecap="round" stroke-linejoin="round"/>
<path d="M244.762 69.005C244.433 68.7426 244.044 68.8103 243.664 68.8103C238.543 68.8103 233.422 68.8272 228.309 68.7849C227.718 68.7849 227.126 69.3014 226.493 68.7341C226.146 68.4293 225.808 68.1668 225.926 67.7181C226.45 65.6522 227.245 63.7133 229.315 62.7481C230.312 62.2824 231.436 62.0622 232.383 61.495C234.03 60.5128 235.763 60.3943 237.58 60.6144C237.858 60.6483 238.129 60.6314 238.382 60.8176C239.608 61.7405 241.103 62.0876 242.472 62.7057C243.892 63.3577 244.931 64.3229 245.464 65.813C245.599 66.1771 245.709 66.5497 245.852 66.9137C246.351 68.1583 246.199 68.4547 244.864 69.005" stroke="#6100FF" stroke-linecap="round" stroke-linejoin="round"/>
<path d="M214.644 65.6013C212.911 66.9899 211.188 68.4038 209.244 69.4706C206.886 70.7661 204.478 72.0276 201.681 72.1038C201.385 72.1038 201.098 72.307 200.785 72.2901" stroke="#6100FF" stroke-linecap="round" stroke-linejoin="round"/>
<path d="M241.271 77.5989C241.297 79.7071 241.888 81.7307 242.15 83.7966C242.395 85.7016 242.919 87.5558 242.962 89.4863" stroke="#6100FF" stroke-linecap="round" stroke-linejoin="round"/>
<path d="M231.291 52.6133C231.316 52.1053 231.139 51.6905 230.792 51.3095C229.981 50.4204 229.052 49.6754 227.987 49.1335C227.548 48.9134 227.395 48.6763 227.286 48.2191C226.686 45.7214 224.598 44.5445 222.021 45.2134C221.725 45.2896 221.708 45.4843 221.725 45.7214" stroke="#6100FF" stroke-linecap="round" stroke-linejoin="round"/>
<path d="M198.783 62.8074C199.501 63.2392 199.611 63.9843 199.671 64.7039C199.84 66.6767 200.194 68.6241 200.397 70.5968C200.439 70.9948 200.465 71.3419 200.279 71.6975" stroke="#6100FF" stroke-linecap="round" stroke-linejoin="round"/>
<path d="M221.819 45.2217C221.354 44.6968 221.143 44.0279 220.636 43.5114C219.081 41.8943 216.639 41.9281 215.042 43.6384C214.771 43.9263 214.509 44.2396 214.23 44.5275" stroke="#6100FF" stroke-linecap="round" stroke-linejoin="round"/>
<path d="M214.839 65.703C215.541 66.9222 217.772 66.7614 218.735 66.1094C220.138 65.1781 220.873 63.4254 220.104 61.7152C219.301 59.9287 217.501 59.3698 216.039 59.7932C214.324 60.2927 213.352 61.6644 213.437 63.5016C213.479 64.3653 214.062 64.9241 214.442 65.6014" stroke="#6100FF" stroke-linecap="round" stroke-linejoin="round"/>
<path d="M235.982 82.1963V89.4947" stroke="#6100FF" stroke-linecap="round" stroke-linejoin="round"/>
<path d="M235.982 75.1943V79.2923" stroke="#6100FF" stroke-linecap="round" stroke-linejoin="round"/>
<path d="M209.989 254.369C209.676 252.387 209.955 250.415 210.605 248.594C212.355 243.684 214.552 238.976 216.166 233.981C218.202 227.707 220.763 221.594 222.478 215.193C224.168 208.91 226.94 203.009 228.884 196.794C230.988 190.072 234.258 183.772 236.557 177.058C238.838 170.37 241.779 163.884 243.342 156.975C245.032 149.49 246.165 142.006 244.931 134.174C244.078 128.747 236.379 125.36 232.146 128.425C229.484 130.347 227.472 132.667 226.07 135.656C219.385 149.914 214.94 165.095 208.298 179.361C205.856 184.602 204.149 190.156 200.972 195.11C197.752 200.13 194.203 204.406 188.271 206.336C185.592 207.209 183.674 206.489 181.637 204.973C176.753 201.341 172.435 197.065 167.931 193.001C166.46 191.68 164.661 191.299 163.308 191.621C160.334 192.315 157.52 193.746 155.83 196.608C155.83 196.608 150.506 192.002 148.098 190.114C144.008 186.888 140.053 186.753 135.819 188.886C132.667 190.478 129.955 190.368 126.735 188.886C123.71 187.498 120.363 186.566 117 186.152C114.195 185.804 111.955 186.998 110.02 189.149C107.062 192.442 104.992 196.32 102.499 199.919C98.967 205.016 95.9755 210.46 92.8235 215.785C91.0067 218.859 89.5532 222.212 88.0913 225.455C85.5646 231.051 82.6999 236.487 80.0042 241.982C75.9058 250.347 71.6552 258.712 66.0188 266.171C62.3851 270.972 56.9431 273.783 51.8052 276.687C39.6789 283.562 -23.8328 298.658 -36.5 304.5L-43 401.077C-31.5159 393.186 129.084 335.447 142.52 331.391C153.582 328.055 164.187 323.128 174.48 317.675C184.84 312.188 195.268 306.846 204.893 300.072C216.766 291.724 228.487 283.198 238.39 272.471C241.872 268.694 244.154 263.978 247.728 260.236C251.742 256.02 256.052 252.184 260.818 248.823C263.015 247.273 265.009 245.436 266.437 242.964C268.423 239.526 268.322 236.326 265.913 233.346C263.471 230.323 259.998 229.104 256.263 229.646C252.874 230.137 249.782 231.881 246.511 232.914C234.469 236.724 223.999 243.074 215.169 252.066L209.989 254.352V254.369Z" fill="#6100FF"/>
<path d="M197.102 272.267C199.535 266.535 206.558 258.822 209.988 254.369L197.102 272.267Z" fill="#6100FF"/>
<path d="M197.102 272.267C199.535 266.535 206.558 258.822 209.988 254.369" stroke="white" stroke-linecap="round" stroke-linejoin="round"/>
<path d="M225.606 170.53C222.251 168.566 218.321 168.227 214.814 166.687L225.606 170.53Z" fill="#6100FF"/>
<path d="M225.606 170.53C222.251 168.566 218.321 168.227 214.814 166.687" stroke="white" stroke-linecap="round" stroke-linejoin="round"/>
<path d="M222.631 177.558C219.048 176.254 215.76 174.18 211.975 173.401L222.631 177.558Z" fill="#6100FF"/>
<path d="M222.631 177.558C219.048 176.254 215.76 174.18 211.975 173.401" stroke="white" stroke-linecap="round" stroke-linejoin="round"/>
<path d="M224.76 143.267L229.847 129.898C230.168 129.051 230.979 128.493 231.892 128.484C234.03 128.467 237.875 128.653 239.776 130.076C240.478 130.601 240.706 131.558 240.359 132.362L234.774 145.528C234.774 145.528 228.917 140.863 224.76 143.267Z" fill="#00FFC2"/>
<path d="M251.564 246.681C254.421 240.678 259.043 236.106 265.922 233.363C265.922 233.363 269.91 235.928 269.251 239.603C268.296 244.911 253.905 253.717 255.283 251.947L251.564 246.689V246.681Z" fill="#00FFC2"/>
<path d="M187.662 126.909L201.014 140.287" stroke="#6100FF" stroke-miterlimit="10"/>
<path d="M201.014 126.909L187.662 140.287" stroke="#6100FF" stroke-miterlimit="10"/>
</svg>
